<svg width="1565" height="247" viewBox="0 0 1565 247" fill="none" xmlns="http://www.w3.org/2000/svg">
<path d="M0.302979 158.325L1582.28 160.793" stroke="#8F8D8F" stroke-width="1.57565" stroke-dasharray="7.88 7.88"/>
<path id = "Herzkurve" 
<circle cx="74.3874" cy="211.831" r="5.25516" fill="white" stroke="#D1D0D1" stroke-width="1.85476"/>
<circle cx="182.555" cy="8.70696" r="5.25516" fill="white" stroke="#D1D0D1" stroke-width="1.85476"/>
<circle cx="247.301" cy="172.381" r="5.25516" fill="white" stroke="#D1D0D1" stroke-width="1.85476"/>
<circle cx="282.712" cy="138.54" r="5.25516" fill="white" stroke="#D1D0D1" stroke-width="1.85476"/>
<circle cx="324.754" cy="136.067" r="5.25516" fill="white" stroke="#D1D0D1" stroke-width="1.85476"/>
<circle cx="354.43" cy="110.101" r="5.25516" fill="white" stroke="#D1D0D1" stroke-width="1.85476"/>
<circle cx="417.492" cy="75.4784" r="5.25516" fill="white" stroke="#D1D0D1" stroke-width="1.85476"/>
<circle cx="455.823" cy="136.067" r="5.25516" fill="white" stroke="#D1D0D1" stroke-width="1.85476"/>
<circle cx="515.176" cy="138.54" r="5.25516" fill="white" stroke="#D1D0D1" stroke-width="1.85476"/>
<circle cx="583.184" cy="233.752" r="5.25516" fill="white" stroke="#D1D0D1" stroke-width="1.85476"/>
<circle cx="622.752" cy="233.752" r="5.25516" fill="white" stroke="#D1D0D1" stroke-width="1.85476"/>
<circle cx="657.375" cy="206.549" r="5.25516" fill="white" stroke="#D1D0D1" stroke-width="1.85476"/>
<circle cx="682.105" cy="206.549" r="5.25516" fill="white" stroke="#D1D0D1" stroke-width="1.85476"/>
<circle cx="726.619" cy="171.927" r="5.25516" fill="white" stroke="#D1D0D1" stroke-width="1.85476"/>
<circle cx="751.349" cy="171.927" r="5.25516" fill="white" stroke="#D1D0D1" stroke-width="1.85476"/>
<circle cx="794.627" cy="227.569" r="5.25516" fill="white" stroke="#D1D0D1" stroke-width="1.85476"/>
<circle cx="830.486" cy="206.549" r="5.25516" fill="white" stroke="#D1D0D1" stroke-width="1.85476"/>
<circle cx="884.892" cy="205.311" r="5.25516" fill="white" stroke="#D1D0D1" stroke-width="1.85476"/>
<circle cx="929.407" cy="152.143" r="5.25516" fill="white" stroke="#D1D0D1" stroke-width="1.85476"/>
<circle cx="965.265" cy="171.927" r="5.25516" fill="white" stroke="#D1D0D1" stroke-width="1.85476"/>
<circle cx="1059.24" cy="171.927" r="5.25516" fill="white" stroke="#D1D0D1" stroke-width="1.85476"/>
<circle cx="1095.1" cy="152.143" r="5.25516" fill="white" stroke="#D1D0D1" stroke-width="1.85476"/>
<circle cx="1129.72" cy="199.13" r="5.25516" fill="white" stroke="#D1D0D1" stroke-width="1.85476"/>
<circle cx="1169.29" cy="142.25" r="5.25516" fill="white" stroke="#D1D0D1" stroke-width="1.85476"/>
<circle cx="1197.73" cy="142.25" r="5.25516" fill="white" stroke="#D1D0D1" stroke-width="1.85476"/>
<circle cx="1234.82" cy="239.934" r="5.25516" fill="white" stroke="#D1D0D1" stroke-width="1.85476"/>
<circle cx="1304.07" cy="112.574" r="5.25516" fill="white" stroke="#D1D0D1" stroke-width="1.85476"/>
<circle cx="1339.93" cy="162.034" r="5.25516" fill="white" stroke="#D1D0D1" stroke-width="1.85476"/>
<circle cx="1401.75" cy="118.756" r="5.25516" fill="white" stroke="#D1D0D1" stroke-width="1.85476"/>
<circle cx="1445.03" cy="141.014" r="5.25516" fill="white" stroke="#D1D0D1" stroke-width="1.85476"/>
<circle cx="1472.23" cy="139.777" r="5.25516" fill="white" stroke="#D1D0D1" stroke-width="1.85476"/>
<circle cx="1513.04" cy="61.8769" r="5.25516" fill="white" stroke="#D1D0D1" stroke-width="1.85476"/>
</svg>
