<svg width="1565" height="247" viewBox="0 0 1565 247" fill="none" xmlns="http://www.w3.org/2000/svg">
<path d="M0.302979 158.325L1582.28 160.793" stroke="#8F8D8F" stroke-width="1.57565" stroke-dasharray="7.88 7.88"/>
<path d="M16.8633 167.082L70.7686 213.616C73.2165 215.729 77.0005 214.964 78.4341 212.065L178.035 10.6818C179.984 6.7424 185.718 7.11092 187.147 11.2673L242.435 172.18C243.689 175.829 248.454 176.701 250.919 173.731L279.709 139.044C280.649 137.912 282.044 137.257 283.515 137.257H321.655C322.914 137.257 324.126 136.776 325.044 135.913L352.023 110.529C352.941 109.666 354.153 109.185 355.413 109.185H385.832C387.347 109.185 388.779 108.49 389.717 107.3L414.655 75.6414C416.913 72.776 421.389 73.2563 422.987 76.5355L451.22 134.477C452.049 136.178 453.775 137.257 455.667 137.257H514.268C515.923 137.257 517.469 138.085 518.386 139.463L579.793 231.752C580.71 233.13 582.256 233.958 583.911 233.958H622.856C624.067 233.958 625.236 233.514 626.142 232.709L654.633 207.391C655.538 206.587 656.707 206.142 657.919 206.142H682.096C683.238 206.142 684.345 205.747 685.229 205.023L724.232 173.088C725.116 172.364 726.223 171.969 727.365 171.969H750.596C752.348 171.969 753.968 172.895 754.858 174.404L787.235 229.363C788.696 231.843 791.957 232.556 794.32 230.913L828.666 207.028C829.495 206.451 830.48 206.142 831.49 206.142H882.993C884.617 206.142 886.138 205.345 887.062 204.008L924.46 149.886C926.033 147.61 929.167 147.067 931.414 148.681L962.549 171.04C963.39 171.644 964.399 171.969 965.434 171.969H1059.69C1060.69 171.969 1061.67 171.667 1062.49 171.102L1094.87 148.906C1097.32 147.225 1100.69 148.071 1102.06 150.709L1126.58 198.025C1128.39 201.514 1133.35 201.602 1135.28 198.179L1166.04 143.649C1166.92 142.095 1168.56 141.134 1170.35 141.134H1197.46C1199.63 141.134 1201.54 142.545 1202.18 144.615L1230.09 234.635C1231.42 238.916 1237.3 239.365 1239.26 235.336L1299.3 112.044C1301.14 108.261 1306.57 108.36 1308.27 112.208L1332.02 165.869C1333.37 168.905 1337.26 169.781 1339.78 167.612L1398.3 117.151C1399.94 115.738 1402.31 115.554 1404.14 116.7L1442.15 140.385C1442.94 140.874 1443.84 141.134 1444.77 141.134H1470.74C1472.78 141.134 1474.6 139.889 1475.35 137.997L1507.1 57.1944C1508.36 54.0031 1512.4 53.0253 1514.97 55.2904L1574.09 107.306" stroke="#010005" stroke-width="6.21669" stroke-linecap="round" stroke-linejoin="round"/>
<circle cx="74.3874" cy="211.831" r="5.25516" fill="white" stroke="#D1D0D1" stroke-width="1.85476"/>
<circle cx="182.555" cy="8.70696" r="5.25516" fill="white" stroke="#D1D0D1" stroke-width="1.85476"/>
<circle cx="247.301" cy="172.381" r="5.25516" fill="white" stroke="#D1D0D1" stroke-width="1.85476"/>
<circle cx="282.712" cy="138.54" r="5.25516" fill="white" stroke="#D1D0D1" stroke-width="1.85476"/>
<circle cx="324.754" cy="136.067" r="5.25516" fill="white" stroke="#D1D0D1" stroke-width="1.85476"/>
<circle cx="354.43" cy="110.101" r="5.25516" fill="white" stroke="#D1D0D1" stroke-width="1.85476"/>
<circle cx="417.492" cy="75.4784" r="5.25516" fill="white" stroke="#D1D0D1" stroke-width="1.85476"/>
<circle cx="455.823" cy="136.067" r="5.25516" fill="white" stroke="#D1D0D1" stroke-width="1.85476"/>
<circle cx="515.176" cy="138.54" r="5.25516" fill="white" stroke="#D1D0D1" stroke-width="1.85476"/>
<circle cx="583.184" cy="233.752" r="5.25516" fill="white" stroke="#D1D0D1" stroke-width="1.85476"/>
<circle cx="622.752" cy="233.752" r="5.25516" fill="white" stroke="#D1D0D1" stroke-width="1.85476"/>
<circle cx="657.375" cy="206.549" r="5.25516" fill="white" stroke="#D1D0D1" stroke-width="1.85476"/>
<circle cx="682.105" cy="206.549" r="5.25516" fill="white" stroke="#D1D0D1" stroke-width="1.85476"/>
<circle cx="726.619" cy="171.927" r="5.25516" fill="white" stroke="#D1D0D1" stroke-width="1.85476"/>
<circle cx="751.349" cy="171.927" r="5.25516" fill="white" stroke="#D1D0D1" stroke-width="1.85476"/>
<circle cx="794.627" cy="227.569" r="5.25516" fill="white" stroke="#D1D0D1" stroke-width="1.85476"/>
<circle cx="830.486" cy="206.549" r="5.25516" fill="white" stroke="#D1D0D1" stroke-width="1.85476"/>
<circle cx="884.892" cy="205.311" r="5.25516" fill="white" stroke="#D1D0D1" stroke-width="1.85476"/>
<circle cx="929.407" cy="152.143" r="5.25516" fill="white" stroke="#D1D0D1" stroke-width="1.85476"/>
<circle cx="965.265" cy="171.927" r="5.25516" fill="white" stroke="#D1D0D1" stroke-width="1.85476"/>
<circle cx="1059.24" cy="171.927" r="5.25516" fill="white" stroke="#D1D0D1" stroke-width="1.85476"/>
<circle cx="1095.1" cy="152.143" r="5.25516" fill="white" stroke="#D1D0D1" stroke-width="1.85476"/>
<circle cx="1129.72" cy="199.13" r="5.25516" fill="white" stroke="#D1D0D1" stroke-width="1.85476"/>
<circle cx="1169.29" cy="142.25" r="5.25516" fill="white" stroke="#D1D0D1" stroke-width="1.85476"/>
<circle cx="1197.73" cy="142.25" r="5.25516" fill="white" stroke="#D1D0D1" stroke-width="1.85476"/>
<circle cx="1234.82" cy="239.934" r="5.25516" fill="white" stroke="#D1D0D1" stroke-width="1.85476"/>
<circle cx="1304.07" cy="112.574" r="5.25516" fill="white" stroke="#D1D0D1" stroke-width="1.85476"/>
<circle cx="1339.93" cy="162.034" r="5.25516" fill="white" stroke="#D1D0D1" stroke-width="1.85476"/>
<circle cx="1401.75" cy="118.756" r="5.25516" fill="white" stroke="#D1D0D1" stroke-width="1.85476"/>
<circle cx="1445.03" cy="141.014" r="5.25516" fill="white" stroke="#D1D0D1" stroke-width="1.85476"/>
<circle cx="1472.23" cy="139.777" r="5.25516" fill="white" stroke="#D1D0D1" stroke-width="1.85476"/>
<circle cx="1513.04" cy="61.8769" r="5.25516" fill="white" stroke="#D1D0D1" stroke-width="1.85476"/>
</svg>
