<svg width="57" height="34" viewBox="0 0 57 34" fill="none" xmlns="http://www.w3.org/2000/svg">
<rect x="0.313617" y="0.610492" width="56.0061" height="32.5617" rx="1.19393" fill="white" stroke="black" stroke-width="0.217078"/>
<rect x="0.28725" y="0.649555" width="20.6224" height="5.60562" rx="0.759773" stroke="black" stroke-width="0.217078"/>
<rect x="17.9791" y="0.610492" width="20.6224" height="5.64403" rx="0.759773" fill="white" stroke="black" stroke-width="0.217078"/>
<rect x="35.5831" y="0.610492" width="20.6224" height="5.64403" rx="0.759773" fill="white" stroke="black" stroke-width="0.217078"/>
<path d="M5.38293 3.97852V2.12657H5.90569C6.06681 2.12657 6.20926 2.16218 6.33307 2.23341C6.45687 2.30464 6.55226 2.40597 6.61925 2.53741C6.68709 2.66884 6.72143 2.81978 6.72228 2.99022V3.10851C6.72228 3.28319 6.68836 3.43624 6.62053 3.56768C6.55354 3.69911 6.45729 3.80002 6.33179 3.8704C6.20714 3.94078 6.06172 3.97682 5.89552 3.97852H5.38293ZM5.62714 2.32754V3.77882H5.88407C6.07232 3.77882 6.21859 3.72031 6.32289 3.60329C6.42804 3.48627 6.48061 3.31965 6.48061 3.10342V2.99531C6.48061 2.78501 6.43101 2.62178 6.33179 2.50561C6.23343 2.38859 6.09352 2.32923 5.91205 2.32754H5.62714ZM8.51699 3.11232C8.51699 3.29379 8.48646 3.45236 8.42541 3.58803C8.36436 3.72286 8.27786 3.82588 8.16593 3.89711C8.054 3.96834 7.92342 4.00395 7.77418 4.00395C7.62833 4.00395 7.49901 3.96834 7.38623 3.89711C7.27345 3.82503 7.18569 3.72286 7.12294 3.59057C7.06104 3.45744 7.02924 3.30354 7.02755 3.12886V2.99531C7.02755 2.81723 7.0585 2.65994 7.1204 2.52342C7.1823 2.38689 7.26964 2.28259 7.38242 2.21052C7.49604 2.13759 7.62578 2.10113 7.77163 2.10113C7.92002 2.10113 8.05061 2.13717 8.16339 2.20925C8.27702 2.28047 8.36436 2.38435 8.42541 2.52087C8.48646 2.65655 8.51699 2.81469 8.51699 2.99531V3.11232ZM8.27405 2.99276C8.27405 2.77314 8.22995 2.60482 8.14177 2.4878C8.05358 2.36993 7.9302 2.311 7.77163 2.311C7.6173 2.311 7.49562 2.36993 7.40658 2.4878C7.3184 2.60482 7.27303 2.76763 7.27049 2.97623V3.11232C7.27049 3.32516 7.315 3.49263 7.40404 3.61474C7.49392 3.736 7.6173 3.79663 7.77418 3.79663C7.9319 3.79663 8.054 3.73939 8.14049 3.62492C8.22699 3.50959 8.2715 3.34467 8.27405 3.13013V2.99276ZM10.3066 3.97852H10.0611L9.12879 2.5514V3.97852H8.88331V2.12657H9.12879L10.0637 3.56005V2.12657H10.3066V3.97852ZM10.72 2.64807L10.5864 2.55649C10.6653 2.44625 10.706 2.33008 10.7085 2.20797V2.02481H10.9413V2.19017C10.9405 2.27496 10.9193 2.35976 10.8777 2.44456C10.837 2.5285 10.7844 2.59634 10.72 2.64807ZM12.5414 2.32754H11.9461V3.97852H11.7032V2.32754H11.1092V2.12657H12.5414V2.32754Z" fill="#010005"/>
<path d="M23.499 3.16066H22.7219V3.97852H22.4777V2.12657H23.6249V2.32754H22.7219V2.96096H23.499V3.16066ZM25.3421 3.11232C25.3421 3.29379 25.3115 3.45236 25.2505 3.58803C25.1894 3.72286 25.1029 3.82588 24.991 3.89711C24.8791 3.96834 24.7485 4.00395 24.5993 4.00395C24.4534 4.00395 24.3241 3.96834 24.2113 3.89711C24.0985 3.82503 24.0108 3.72286 23.948 3.59057C23.8861 3.45744 23.8543 3.30354 23.8526 3.12886V2.99531C23.8526 2.81723 23.8836 2.65994 23.9455 2.52342C24.0074 2.38689 24.0947 2.28259 24.2075 2.21052C24.3211 2.13759 24.4509 2.10113 24.5967 2.10113C24.7451 2.10113 24.8757 2.13717 24.9885 2.20925C25.1021 2.28047 25.1894 2.38435 25.2505 2.52087C25.3115 2.65655 25.3421 2.81469 25.3421 2.99531V3.11232ZM25.0991 2.99276C25.0991 2.77314 25.055 2.60482 24.9668 2.4878C24.8787 2.36993 24.7553 2.311 24.5967 2.311C24.4424 2.311 24.3207 2.36993 24.2317 2.4878C24.1435 2.60482 24.0981 2.76763 24.0956 2.97623V3.11232C24.0956 3.32516 24.1401 3.49263 24.2291 3.61474C24.319 3.736 24.4424 3.79663 24.5993 3.79663C24.757 3.79663 24.8791 3.73939 24.9656 3.62492C25.0521 3.50959 25.0966 3.34467 25.0991 3.13013V2.99276ZM26.3876 3.22934H25.9526V3.97852H25.7071V2.12657H26.3202C26.5288 2.12657 26.689 2.17406 26.801 2.26903C26.9138 2.364 26.9701 2.50222 26.9701 2.68368C26.9701 2.799 26.9388 2.89949 26.876 2.98513C26.8141 3.07077 26.7276 3.13479 26.6165 3.17719L27.0516 3.96325V3.97852H26.7895L26.3876 3.22934ZM25.9526 3.02965H26.3278C26.4491 3.02965 26.5453 2.99827 26.6165 2.93552C26.6886 2.87278 26.7247 2.78883 26.7247 2.68368C26.7247 2.56921 26.6903 2.48144 26.6216 2.42039C26.5538 2.35934 26.4554 2.32838 26.3265 2.32754H25.9526V3.02965ZM28.6809 3.73557C28.6182 3.82546 28.5304 3.89287 28.4176 3.93781C28.3057 3.98191 28.1751 4.00395 28.0259 4.00395C27.8749 4.00395 27.7409 3.96876 27.6239 3.89838C27.5069 3.82715 27.4162 3.72625 27.3517 3.59566C27.2881 3.46508 27.2555 3.31371 27.2538 3.14158V2.98004C27.2538 2.70106 27.3187 2.48483 27.4484 2.33135C27.579 2.17787 27.7621 2.10113 27.9979 2.10113C28.1912 2.10113 28.3468 2.15074 28.4647 2.24995C28.5825 2.34831 28.6546 2.48823 28.6809 2.66969H28.4367C28.3909 2.42463 28.2451 2.3021 27.9991 2.3021C27.8355 2.3021 27.7113 2.35976 27.6265 2.47508C27.5425 2.58956 27.5001 2.75576 27.4993 2.97368V3.12504C27.4993 3.33279 27.5468 3.49815 27.6417 3.6211C27.7367 3.74321 27.8652 3.80426 28.0271 3.80426C28.1187 3.80426 28.1988 3.79408 28.2675 3.77373C28.3362 3.75338 28.393 3.71904 28.438 3.67071V3.25478H28.0093V3.05636H28.6809V3.73557ZM30.136 3.1225H29.3334V3.77882H30.2657V3.97852H29.0892V2.12657H30.253V2.32754H29.3334V2.9228H30.136V3.1225ZM31.8748 2.32754H31.2795V3.97852H31.0365V2.32754H30.4425V2.12657H31.8748V2.32754Z" fill="#010005"/>
<path d="M45.7211 2.32754H45.1258V3.97852H44.8829V2.32754H44.2889V2.12657H45.7211V2.32754ZM47.3848 3.11232C47.3848 3.29379 47.3543 3.45236 47.2932 3.58803C47.2322 3.72286 47.1457 3.82588 47.0337 3.89711C46.9218 3.96834 46.7912 4.00395 46.642 4.00395C46.4961 4.00395 46.3668 3.96834 46.254 3.89711C46.1413 3.82503 46.0535 3.72286 45.9907 3.59057C45.9288 3.45744 45.897 3.30354 45.8953 3.12886V2.99531C45.8953 2.81723 45.9263 2.65994 45.9882 2.52342C46.0501 2.38689 46.1374 2.28259 46.2502 2.21052C46.3638 2.13759 46.4936 2.10113 46.6394 2.10113C46.7878 2.10113 46.9184 2.13717 47.0312 2.20925C47.1448 2.28047 47.2322 2.38435 47.2932 2.52087C47.3543 2.65655 47.3848 2.81469 47.3848 2.99531V3.11232ZM47.1419 2.99276C47.1419 2.77314 47.0978 2.60482 47.0096 2.4878C46.9214 2.36993 46.798 2.311 46.6394 2.311C46.4851 2.311 46.3634 2.36993 46.2744 2.4878C46.1862 2.60482 46.1408 2.76763 46.1383 2.97623V3.11232C46.1383 3.32516 46.1828 3.49263 46.2718 3.61474C46.3617 3.736 46.4851 3.79663 46.642 3.79663C46.7997 3.79663 46.9218 3.73939 47.0083 3.62492C47.0948 3.50959 47.1393 3.34467 47.1419 3.13013V2.99276Z" fill="#010005"/>
</svg>
