<svg width="322" height="188" viewBox="0 0 322 188" fill="none" xmlns="http://www.w3.org/2000/svg">
<rect x="1.70419" y="1.46103" width="319.019" height="185.476" rx="6.8008" fill="white" stroke="black" stroke-width="1.23651"/>
<rect x="1.55527" y="1.67978" width="117.468" height="31.9305" rx="4.32778" stroke="black" stroke-width="1.23651"/>
<rect x="102.331" y="1.46103" width="117.468" height="32.1492" rx="4.32778" fill="white" stroke="black" stroke-width="1.23651"/>
<rect x="202.606" y="1.46103" width="117.468" height="32.1492" rx="4.32778" fill="white" stroke="black" stroke-width="1.23651"/>
<path d="M30.5814 23.2549V12.7059H33.5591C34.4769 12.7059 35.2883 12.9088 35.9935 13.3145C36.6987 13.7202 37.2421 14.2974 37.6237 15.0461C38.0101 15.7948 38.2057 16.6545 38.2105 17.6254V18.2992C38.2105 19.2942 38.0173 20.166 37.6309 20.9147C37.2493 21.6634 36.7011 22.2381 35.9863 22.639C35.2762 23.0399 34.4479 23.2452 33.5012 23.2549H30.5814ZM31.9724 13.8507V22.1174H33.436C34.5082 22.1174 35.3414 21.7841 35.9355 21.1176C36.5345 20.451 36.8339 19.5019 36.8339 18.2702V17.6544C36.8339 16.4565 36.5514 15.5267 35.9863 14.865C35.426 14.1984 34.629 13.8603 33.5954 13.8507H31.9724ZM48.4335 18.3209C48.4335 19.3546 48.2596 20.2578 47.9118 21.0306C47.564 21.7986 47.0714 22.3855 46.4338 22.7912C45.7962 23.1969 45.0524 23.3998 44.2023 23.3998C43.3715 23.3998 42.6349 23.1969 41.9925 22.7912C41.3501 22.3806 40.8502 21.7986 40.4928 21.0451C40.1402 20.2868 39.959 19.4101 39.9494 18.4151V17.6544C39.9494 16.64 40.1257 15.7441 40.4783 14.9664C40.8309 14.1888 41.3284 13.5947 41.9708 13.1841C42.618 12.7687 43.357 12.561 44.1878 12.561C45.0331 12.561 45.7769 12.7663 46.4193 13.1769C47.0665 13.5826 47.564 14.1743 47.9118 14.9519C48.2596 15.7247 48.4335 16.6256 48.4335 17.6544V18.3209ZM47.0496 17.6399C47.0496 16.3889 46.7985 15.4301 46.2961 14.7635C45.7938 14.0922 45.091 13.7565 44.1878 13.7565C43.3087 13.7565 42.6156 14.0922 42.1084 14.7635C41.6061 15.4301 41.3477 16.3575 41.3332 17.5457V18.3209C41.3332 19.5333 41.5868 20.4872 42.0939 21.1828C42.6059 21.8735 43.3087 22.2188 44.2023 22.2188C45.1007 22.2188 45.7962 21.8928 46.2889 21.2407C46.7816 20.5838 47.0351 19.6444 47.0496 18.4224V17.6399ZM58.6274 23.2549H57.2291L51.9184 15.1258V23.2549H50.5201V12.7059H51.9184L57.2436 20.8712V12.7059H58.6274V23.2549ZM60.9821 15.6764L60.2213 15.1548C60.6705 14.5269 60.9024 13.8651 60.9169 13.1696V12.1263H62.2427V13.0682C62.2379 13.5512 62.1172 14.0342 61.8805 14.5172C61.6486 14.9954 61.3492 15.3818 60.9821 15.6764ZM71.3572 13.8507H67.9664V23.2549H66.5826V13.8507H63.1991V12.7059H71.3572V13.8507Z" fill="#010005"/>
<path d="M133.774 18.5962H129.347V23.2549H127.956V12.7059H134.491V13.8507H129.347V17.4587H133.774V18.5962ZM144.272 18.3209C144.272 19.3546 144.098 20.2578 143.75 21.0306C143.403 21.7986 142.91 22.3855 142.272 22.7912C141.635 23.1969 140.891 23.3998 140.041 23.3998C139.21 23.3998 138.473 23.1969 137.831 22.7912C137.189 22.3806 136.689 21.7986 136.331 21.0451C135.979 20.2868 135.798 19.4101 135.788 18.4151V17.6544C135.788 16.64 135.964 15.7441 136.317 14.9664C136.669 14.1888 137.167 13.5947 137.809 13.1841C138.457 12.7687 139.196 12.561 140.026 12.561C140.872 12.561 141.615 12.7663 142.258 13.1769C142.905 13.5826 143.403 14.1743 143.75 14.9519C144.098 15.7247 144.272 16.6256 144.272 17.6544V18.3209ZM142.888 17.6399C142.888 16.3889 142.637 15.4301 142.135 14.7635C141.632 14.0922 140.93 13.7565 140.026 13.7565C139.147 13.7565 138.454 14.0922 137.947 14.7635C137.445 15.4301 137.186 16.3575 137.172 17.5457V18.3209C137.172 19.5333 137.425 20.4872 137.932 21.1828C138.444 21.8735 139.147 22.2188 140.041 22.2188C140.939 22.2188 141.635 21.8928 142.127 21.2407C142.62 20.5838 142.874 19.6444 142.888 18.4224V17.6399ZM150.228 18.9875H147.75V23.2549H146.351V12.7059H149.844C151.032 12.7059 151.945 12.9764 152.582 13.5174C153.225 14.0584 153.546 14.8457 153.546 15.8793C153.546 16.5362 153.367 17.1086 153.01 17.5964C152.657 18.0842 152.164 18.4489 151.532 18.6904L154.009 23.1679V23.2549H152.517L150.228 18.9875ZM147.75 17.85H149.887C150.578 17.85 151.126 17.6713 151.532 17.3138C151.942 16.9564 152.147 16.4782 152.147 15.8793C152.147 15.2272 151.952 14.7273 151.561 14.3796C151.174 14.0318 150.614 13.8555 149.88 13.8507H147.75V17.85ZM163.291 21.8711C162.933 22.383 162.433 22.767 161.791 23.023C161.153 23.2742 160.409 23.3998 159.559 23.3998C158.7 23.3998 157.936 23.1993 157.27 22.7984C156.603 22.3927 156.086 21.8179 155.719 21.0741C155.357 20.3303 155.171 19.4681 155.161 18.4876V17.5674C155.161 15.9783 155.531 14.7466 156.27 13.8724C157.014 12.9981 158.057 12.561 159.4 12.561C160.501 12.561 161.387 12.8436 162.059 13.4087C162.73 13.969 163.141 14.766 163.291 15.7996H161.899C161.639 14.4037 160.808 13.7058 159.407 13.7058C158.475 13.7058 157.767 14.0342 157.284 14.6911C156.806 15.3432 156.565 16.2899 156.56 17.5312V18.3934C156.56 19.5768 156.83 20.5186 157.371 21.219C157.912 21.9145 158.644 22.2623 159.567 22.2623C160.088 22.2623 160.545 22.2043 160.936 22.0884C161.327 21.9725 161.651 21.7769 161.907 21.5016V19.1324H159.465V18.0021H163.291V21.8711ZM171.579 18.3789H167.007V22.1174H172.318V23.2549H165.616V12.7059H172.246V13.8507H167.007V17.2414H171.579V18.3789ZM181.483 13.8507H178.092V23.2549H176.709V13.8507H173.325V12.7059H181.483V13.8507Z" fill="#010005"/>
<path d="M260.353 13.8507H256.963V23.2549H255.579V13.8507H252.195V12.7059H260.353V13.8507ZM269.83 18.3209C269.83 19.3546 269.656 20.2578 269.308 21.0306C268.961 21.7986 268.468 22.3855 267.83 22.7912C267.193 23.1969 266.449 23.3998 265.599 23.3998C264.768 23.3998 264.032 23.1969 263.389 22.7912C262.747 22.3806 262.247 21.7986 261.889 21.0451C261.537 20.2868 261.356 19.4101 261.346 18.4151V17.6544C261.346 16.64 261.522 15.7441 261.875 14.9664C262.227 14.1888 262.725 13.5947 263.367 13.1841C264.015 12.7687 264.754 12.561 265.584 12.561C266.43 12.561 267.174 12.7663 267.816 13.1769C268.463 13.5826 268.961 14.1743 269.308 14.9519C269.656 15.7247 269.83 16.6256 269.83 17.6544V18.3209ZM268.446 17.6399C268.446 16.3889 268.195 15.4301 267.693 14.7635C267.19 14.0922 266.488 13.7565 265.584 13.7565C264.705 13.7565 264.012 14.0922 263.505 14.7635C263.003 15.4301 262.744 16.3575 262.73 17.5457V18.3209C262.73 19.5333 262.983 20.4872 263.491 21.1828C264.003 21.8735 264.705 22.2188 265.599 22.2188C266.497 22.2188 267.193 21.8928 267.686 21.2407C268.178 20.5838 268.432 19.6444 268.446 18.4224V17.6399Z" fill="#010005"/>
</svg>
