<svg width="88" height="41" viewBox="0 0 88 41" fill="none" xmlns="http://www.w3.org/2000/svg">
<g id="Kasten3">
<rect id="Rectangle 177" x="0.576109" y="0.171812" width="87.1835" height="39.7085" rx="3.28299" fill="white" stroke="black" stroke-width="0.345577"/>
<path id="Rectangle 178" d="M33.4051 0.222656H4.06368C2.15511 0.222656 0.60791 1.76986 0.60791 3.67843V7.06648C0.60791 8.97505 2.15511 10.5223 4.06368 10.5223H33.4051" stroke="black" stroke-width="0.345577"/>
<path id="Rectangle 179" d="M61.6522 0.222656H32.3108C30.4022 0.222656 28.855 1.76986 28.855 3.67843V7.06648C28.855 8.97505 30.4022 10.5223 32.3108 10.5223H61.6522" stroke="black" stroke-width="0.345577"/>
<path id="Rectangle 180" d="M84.9786 0.222656H60.5583C58.6497 0.222656 57.1025 1.76986 57.1025 3.67843V7.06648C57.1025 8.97505 58.6497 10.5223 60.5583 10.5223H87.9326" stroke="black" stroke-width="0.345577"/>
<path id="TABS" d="M11.3416 4.32582H10.394V6.9541H10.0072V4.32582H9.06162V4.00589H11.3416V4.32582ZM13.245 6.18465H12.0098L11.7324 6.9541H11.3315L12.4573 4.00589H12.7975L13.9254 6.9541H13.5265L13.245 6.18465ZM12.1273 5.86472H13.1296L12.6274 4.48579L12.1273 5.86472ZM14.3222 6.9541V4.00589H15.2861C15.606 4.00589 15.8463 4.07204 16.0069 4.20433C16.1689 4.33662 16.2499 4.53236 16.2499 4.79154C16.2499 4.92923 16.2108 5.0514 16.1325 5.15804C16.0542 5.26334 15.9475 5.34501 15.8125 5.40305C15.9718 5.4476 16.0974 5.53264 16.1892 5.65819C16.2823 5.78238 16.3289 5.93087 16.3289 6.10366C16.3289 6.36824 16.2432 6.57613 16.0717 6.72732C15.9003 6.87851 15.658 6.9541 15.3448 6.9541H14.3222ZM14.711 5.57517V6.6362H15.3529C15.5338 6.6362 15.6762 6.58963 15.7801 6.49648C15.8854 6.40199 15.9381 6.2724 15.9381 6.10771C15.9381 5.75268 15.745 5.57517 15.359 5.57517H14.711ZM14.711 5.26334H15.2982C15.4683 5.26334 15.604 5.22081 15.7052 5.13577C15.8078 5.05073 15.8591 4.93531 15.8591 4.78952C15.8591 4.62753 15.8119 4.51009 15.7174 4.43719C15.6229 4.36295 15.4791 4.32582 15.2861 4.32582H14.711V5.26334ZM17.7746 5.63996C17.4412 5.54412 17.1982 5.42668 17.0457 5.28764C16.8945 5.14724 16.8189 4.97446 16.8189 4.76927C16.8189 4.53708 16.9114 4.3454 17.0963 4.19421C17.2826 4.04167 17.5242 3.9654 17.8212 3.9654C18.0237 3.9654 18.2039 4.00454 18.3618 4.08284C18.5211 4.16113 18.644 4.26913 18.7304 4.40682C18.8181 4.54451 18.862 4.69502 18.862 4.85836H18.4712C18.4712 4.68017 18.4145 4.54046 18.3011 4.43922C18.1877 4.33662 18.0277 4.28533 17.8212 4.28533C17.6295 4.28533 17.4797 4.32785 17.3717 4.41289C17.265 4.49659 17.2117 4.61335 17.2117 4.76319C17.2117 4.88334 17.2623 4.98525 17.3636 5.06895C17.4662 5.15129 17.6396 5.22689 17.884 5.29573C18.1297 5.36458 18.3213 5.44085 18.459 5.52454C18.5981 5.60689 18.7007 5.70341 18.7668 5.8141C18.8343 5.92479 18.8681 6.05506 18.8681 6.2049C18.8681 6.44383 18.7749 6.63552 18.5886 6.77996C18.4023 6.92305 18.1533 6.9946 17.8414 6.9946C17.639 6.9946 17.45 6.95613 17.2745 6.87918C17.099 6.80089 16.9633 6.69424 16.8675 6.55925C16.773 6.42426 16.7257 6.27105 16.7257 6.09961H17.1165C17.1165 6.2778 17.182 6.41886 17.313 6.5228C17.4452 6.6254 17.6214 6.67669 17.8414 6.67669C18.0466 6.67669 18.2039 6.63485 18.3132 6.55115C18.4226 6.46746 18.4773 6.35339 18.4773 6.20895C18.4773 6.06451 18.4266 5.95314 18.3254 5.87485C18.2241 5.7952 18.0406 5.71691 17.7746 5.63996Z" fill="black"/>
<path id="IN" d="M40.9273 6.9541H40.5385V4.00589H40.9273V6.9541ZM43.9059 6.9541H43.5151L42.0308 4.6822V6.9541H41.64V4.00589H42.0308L43.5191 6.28792V4.00589H43.9059V6.9541Z" fill="black"/>
<path id="YOUR" d="M70.293 5.48607L71.0625 4.00589H71.5039L70.4874 5.8546V6.9541H70.0986V5.8546L69.0821 4.00589H69.5276L70.293 5.48607ZM74.0917 5.57517C74.0917 5.86405 74.0431 6.11648 73.9459 6.33247C73.8487 6.5471 73.711 6.71112 73.5328 6.82451C73.3546 6.9379 73.1467 6.9946 72.9091 6.9946C72.6769 6.9946 72.4711 6.9379 72.2915 6.82451C72.112 6.70977 71.9723 6.5471 71.8724 6.33652C71.7739 6.12458 71.7232 5.87957 71.7205 5.60149V5.38888C71.7205 5.1054 71.7698 4.85499 71.8683 4.63765C71.9669 4.42032 72.1059 4.25428 72.2855 4.13953C72.4664 4.02344 72.6729 3.9654 72.9051 3.9654C73.1413 3.9654 73.3492 4.02277 73.5287 4.13751C73.7096 4.2509 73.8487 4.41627 73.9459 4.6336C74.0431 4.84959 74.0917 5.10135 74.0917 5.38888V5.57517ZM73.7049 5.38483C73.7049 5.0352 73.6347 4.76724 73.4943 4.58096C73.3539 4.39332 73.1575 4.2995 72.9051 4.2995C72.6594 4.2995 72.4657 4.39332 72.3239 4.58096C72.1836 4.76724 72.1113 5.02643 72.1073 5.35851V5.57517C72.1073 5.91399 72.1782 6.1806 72.3199 6.37499C72.463 6.56803 72.6594 6.66455 72.9091 6.66455C73.1602 6.66455 73.3546 6.57343 73.4923 6.39119C73.63 6.2076 73.7009 5.94504 73.7049 5.60351V5.38483ZM76.7503 4.00589V6.01051C76.749 6.28859 76.6612 6.51606 76.4871 6.69289C76.3143 6.86973 76.0794 6.96895 75.7824 6.99055L75.6792 6.9946C75.3565 6.9946 75.0994 6.90753 74.9077 6.73339C74.716 6.55925 74.6188 6.31964 74.6161 6.01456V4.00589H75.0008V6.00241C75.0008 6.2157 75.0595 6.38174 75.177 6.50053C75.2944 6.61797 75.4618 6.67669 75.6792 6.67669C75.8992 6.67669 76.0673 6.61797 76.1833 6.50053C76.3008 6.38309 76.3595 6.21772 76.3595 6.00444V4.00589H76.7503ZM78.4451 5.76145H77.7526V6.9541H77.3618V4.00589H78.3378C78.6699 4.00589 78.925 4.08149 79.1032 4.23268C79.2827 4.38387 79.3725 4.6039 79.3725 4.89279C79.3725 5.07637 79.3226 5.23634 79.2227 5.37268C79.1241 5.50902 78.9864 5.61094 78.8096 5.67843L79.5021 6.9298V6.9541H79.085L78.4451 5.76145ZM77.7526 5.44355H78.35C78.543 5.44355 78.6962 5.3936 78.8096 5.29371C78.9243 5.19382 78.9817 5.06017 78.9817 4.89279C78.9817 4.71055 78.927 4.57083 78.8177 4.47364C78.7097 4.37644 78.5531 4.32717 78.3479 4.32582H77.7526V5.44355Z" fill="black"/>
</g>
</svg>
