<svg width="89" height="41" viewBox="0 0 89 41" fill="none" xmlns="http://www.w3.org/2000/svg">
<g id="Kasten2">
<rect id="Rectangle 177" x="0.927672" y="0.810484" width="87.1835" height="39.7085" rx="3.28299" fill="white" stroke="black" stroke-width="0.345577"/>
<path id="Rectangle 178" d="M33.7567 0.861328H4.41525C2.50668 0.861328 0.959473 2.40853 0.959473 4.3171V7.70515C0.959473 9.61372 2.50668 11.1609 4.41525 11.1609H33.7567" stroke="black" stroke-width="0.345577"/>
<path id="Rectangle 179" d="M62.0037 0.861328H32.6623C30.7537 0.861328 29.2065 2.40853 29.2065 4.3171V7.70515C29.2065 9.61372 30.7537 11.1609 32.6623 11.1609H62.0037" stroke="black" stroke-width="0.345577"/>
<path id="Rectangle 180" d="M85.3302 0.861328H60.9099C59.0013 0.861328 57.4541 2.40853 57.4541 4.3171V7.70515C57.4541 9.61373 59.0013 11.1609 60.9099 11.1609H88.2841" stroke="black" stroke-width="0.345577"/>
<path id="CLOSE" d="M11.8248 6.65728C11.7884 6.96911 11.6729 7.21007 11.4785 7.38016C11.2855 7.5489 11.0284 7.63327 10.7071 7.63327C10.3588 7.63327 10.0794 7.5084 9.86878 7.25867C9.65954 7.00894 9.55492 6.67483 9.55492 6.25636V5.97288C9.55492 5.69885 9.60352 5.45789 9.70071 5.25C9.79926 5.04211 9.9383 4.88283 10.1178 4.77213C10.2974 4.66009 10.5053 4.60407 10.7415 4.60407C11.0547 4.60407 11.3058 4.69181 11.4947 4.8673C11.6837 5.04144 11.7938 5.28307 11.8248 5.5922H11.434C11.4003 5.35732 11.3267 5.18723 11.2133 5.08194C11.1012 4.97664 10.944 4.924 10.7415 4.924C10.4931 4.924 10.2981 5.01579 10.1563 5.19938C10.0159 5.38297 9.94572 5.64418 9.94572 5.983V6.26851C9.94572 6.58844 10.0125 6.8429 10.1462 7.03188C10.2798 7.22087 10.4668 7.31537 10.7071 7.31537C10.9231 7.31537 11.0884 7.26677 11.2032 7.16958C11.3193 7.07103 11.3962 6.90027 11.434 6.65728H11.8248ZM12.7481 7.27487H14.1453V7.59277H12.3573V4.64457H12.7481V7.27487ZM16.723 6.21384C16.723 6.50272 16.6744 6.75515 16.5772 6.97114C16.48 7.18577 16.3423 7.34979 16.1641 7.46318C15.9859 7.57657 15.778 7.63327 15.5404 7.63327C15.3082 7.63327 15.1024 7.57657 14.9228 7.46318C14.7433 7.34844 14.6036 7.18577 14.5037 6.97519C14.4052 6.76325 14.3545 6.51824 14.3518 6.24016V6.02755C14.3518 5.74407 14.4011 5.49366 14.4997 5.27632C14.5982 5.05899 14.7372 4.89295 14.9168 4.77821C15.0977 4.66211 15.3042 4.60407 15.5364 4.60407C15.7726 4.60407 15.9805 4.66144 16.16 4.77618C16.3409 4.88957 16.48 5.05494 16.5772 5.27227C16.6744 5.48826 16.723 5.74002 16.723 6.02755V6.21384ZM16.3362 6.0235C16.3362 5.67387 16.266 5.40592 16.1256 5.21963C15.9852 5.03199 15.7888 4.93817 15.5364 4.93817C15.2907 4.93817 15.097 5.03199 14.9552 5.21963C14.8149 5.40592 14.7426 5.6651 14.7386 5.99718V6.21384C14.7386 6.55267 14.8095 6.81927 14.9512 7.01366C15.0943 7.2067 15.2907 7.30322 15.5404 7.30322C15.7915 7.30322 15.9859 7.2121 16.1236 7.02986C16.2613 6.84627 16.3322 6.58371 16.3362 6.24219V6.0235ZM18.1748 6.27863C17.8414 6.18279 17.5984 6.06535 17.4458 5.92631C17.2946 5.78592 17.219 5.61313 17.219 5.40794C17.219 5.17576 17.3115 4.98407 17.4965 4.83288C17.6827 4.68034 17.9244 4.60407 18.2214 4.60407C18.4238 4.60407 18.6041 4.64322 18.762 4.72151C18.9213 4.79981 19.0441 4.9078 19.1305 5.04549C19.2183 5.18318 19.2621 5.3337 19.2621 5.49704H18.8713C18.8713 5.31885 18.8146 5.17913 18.7013 5.07789C18.5879 4.97529 18.4279 4.924 18.2214 4.924C18.0297 4.924 17.8798 4.96652 17.7718 5.05156C17.6652 5.13526 17.6119 5.25203 17.6119 5.40187C17.6119 5.52201 17.6625 5.62393 17.7637 5.70762C17.8663 5.78997 18.0398 5.86556 18.2841 5.93441C18.5298 6.00325 18.7215 6.07952 18.8592 6.16322C18.9982 6.24556 19.1008 6.34208 19.167 6.45277C19.2345 6.56347 19.2682 6.69373 19.2682 6.84357C19.2682 7.08251 19.1751 7.27419 18.9888 7.41863C18.8025 7.56173 18.5534 7.63327 18.2416 7.63327C18.0391 7.63327 17.8501 7.5948 17.6746 7.51785C17.4992 7.43956 17.3635 7.33292 17.2676 7.19792C17.1732 7.06293 17.1259 6.90972 17.1259 6.73828H17.5167C17.5167 6.91647 17.5822 7.05753 17.7131 7.16148C17.8454 7.26407 18.0216 7.31537 18.2416 7.31537C18.4468 7.31537 18.6041 7.27352 18.7134 7.18982C18.8227 7.10613 18.8774 6.99206 18.8774 6.84762C18.8774 6.70318 18.8268 6.59181 18.7256 6.51352C18.6243 6.43387 18.4407 6.35558 18.1748 6.27863ZM21.4348 6.23004H20.1571V7.27487H21.6414V7.59277H19.7684V4.64457H21.6211V4.96449H20.1571V5.91213H21.4348V6.23004Z" fill="black"/>
<path id="ALL" d="M42.4897 6.82332H41.2546L40.9772 7.59277H40.5762L41.7021 4.64457H42.0422L43.1701 7.59277H42.7712L42.4897 6.82332ZM41.372 6.50339H42.3743L41.8721 5.12446L41.372 6.50339ZM43.9578 7.27487H45.3549V7.59277H43.567V4.64457H43.9578V7.27487ZM46.1892 7.27487H47.5863V7.59277H45.7984V4.64457H46.1892V7.27487Z" fill="black"/>
<path id="THE" d="M71.7825 4.96449H70.8349V7.59277H70.4482V4.96449H69.5025V4.64457H71.7825V4.96449ZM74.4857 7.59277H74.0949V6.23004H72.6087V7.59277H72.2199V4.64457H72.6087V5.91213H74.0949V4.64457H74.4857V7.59277ZM76.8427 6.23004H75.565V7.27487H77.0492V7.59277H75.1762V4.64457H77.029V4.96449H75.565V5.91213H76.8427V6.23004Z" fill="black"/>
</g>
</svg>
