<svg width="129" height="76" viewBox="0 0 129 76" fill="none" xmlns="http://www.w3.org/2000/svg">
<rect x="0.571777" y="1.00195" width="127.795" height="74.0889" rx="2.48366" fill="white" stroke="black"/>
<rect x="0.510254" y="1.09082" width="46.7386" height="12.3385" rx="1.48911" stroke="black"/>
<rect x="41.0381" y="1.00195" width="46.7386" height="12.4265" rx="1.48911" fill="white" stroke="black"/>
<rect x="81.3652" y="1.00195" width="46.7386" height="12.4265" rx="1.48911" fill="white" stroke="black"/>
<path d="M11.9319 9.88379V5.64139H13.1294C13.4985 5.64139 13.8248 5.72298 14.1084 5.88615C14.392 6.04932 14.6106 6.28144 14.764 6.58253C14.9194 6.88361 14.9981 7.22938 15 7.61982V7.8908C15 8.29095 14.9223 8.64157 14.7669 8.94265C14.6135 9.24374 14.393 9.4749 14.1055 9.63612C13.82 9.79735 13.4868 9.8799 13.1061 9.88379H11.9319ZM12.4913 6.10176V9.42633H13.0799C13.5111 9.42633 13.8462 9.2923 14.0851 9.02424C14.326 8.75617 14.4464 8.37447 14.4464 7.87914V7.63147C14.4464 7.14974 14.3328 6.77581 14.1055 6.50969C13.8802 6.24162 13.5597 6.10565 13.144 6.10176H12.4913ZM19.1113 7.89954C19.1113 8.31523 19.0414 8.67847 18.9015 8.98927C18.7617 9.29813 18.5635 9.53414 18.3071 9.69731C18.0507 9.86048 17.7516 9.94206 17.4097 9.94206C17.0756 9.94206 16.7794 9.86048 16.521 9.69731C16.2627 9.5322 16.0616 9.29813 15.9179 8.9951C15.7761 8.69013 15.7032 8.33757 15.6993 7.93741V7.63147C15.6993 7.22355 15.7702 6.86322 15.912 6.55048C16.0538 6.23774 16.2539 5.99881 16.5123 5.8337C16.7726 5.66665 17.0698 5.58312 17.4039 5.58312C17.7438 5.58312 18.0429 5.66567 18.3013 5.83079C18.5616 5.99395 18.7617 6.23191 18.9015 6.54465C19.0414 6.85545 19.1113 7.21772 19.1113 7.63147V7.89954ZM18.5548 7.62565C18.5548 7.12254 18.4538 6.73696 18.2518 6.46889C18.0497 6.19889 17.7671 6.06388 17.4039 6.06388C17.0503 6.06388 16.7716 6.19889 16.5676 6.46889C16.3656 6.73696 16.2617 7.10991 16.2559 7.58777V7.89954C16.2559 8.3871 16.3578 8.77074 16.5618 9.05046C16.7677 9.32824 17.0503 9.46713 17.4097 9.46713C17.771 9.46713 18.0507 9.33601 18.2488 9.07377C18.447 8.80959 18.549 8.43178 18.5548 7.94033V7.62565ZM23.2109 9.88379H22.6486L20.5128 6.61458V9.88379H19.9505V5.64139H20.5128L22.6544 8.92517V5.64139H23.2109V9.88379ZM24.1579 6.83602L23.852 6.62623C24.0326 6.37371 24.1258 6.10759 24.1317 5.82787V5.40829H24.6649V5.78708C24.6629 5.98133 24.6144 6.17558 24.5192 6.36983C24.426 6.56213 24.3055 6.71753 24.1579 6.83602ZM28.3304 6.10176H26.9667V9.88379H26.4102V6.10176H25.0495V5.64139H28.3304V6.10176Z" fill="#010005"/>
<path d="M53.4318 8.01026H51.6515V9.88379H51.092V5.64139H53.7202V6.10176H51.6515V7.5528H53.4318V8.01026ZM57.6538 7.89954C57.6538 8.31523 57.5838 8.67847 57.444 8.98927C57.3041 9.29813 57.106 9.53414 56.8496 9.69731C56.5932 9.86048 56.294 9.94206 55.9521 9.94206C55.618 9.94206 55.3218 9.86048 55.0634 9.69731C54.8051 9.5322 54.6041 9.29813 54.4603 8.9951C54.3185 8.69013 54.2457 8.33757 54.2418 7.93741V7.63147C54.2418 7.22355 54.3127 6.86322 54.4545 6.55048C54.5963 6.23774 54.7964 5.99881 55.0547 5.8337C55.315 5.66665 55.6122 5.58312 55.9463 5.58312C56.2862 5.58312 56.5854 5.66567 56.8437 5.83079C57.104 5.99395 57.3041 6.23191 57.444 6.54465C57.5838 6.85545 57.6538 7.21772 57.6538 7.63147V7.89954ZM57.0972 7.62565C57.0972 7.12254 56.9962 6.73696 56.7942 6.46889C56.5922 6.19889 56.3096 6.06388 55.9463 6.06388C55.5928 6.06388 55.314 6.19889 55.1101 6.46889C54.9081 6.73696 54.8041 7.10991 54.7983 7.58777V7.89954C54.7983 8.3871 54.9003 8.77074 55.1042 9.05046C55.3101 9.32824 55.5928 9.46713 55.9521 9.46713C56.3134 9.46713 56.5932 9.33601 56.7913 9.07377C56.9894 8.80959 57.0914 8.43178 57.0972 7.94033V7.62565ZM60.0488 8.1676H59.0524V9.88379H58.49V5.64139H59.8944C60.3723 5.64139 60.7394 5.75017 60.9958 5.96773C61.2542 6.18529 61.3833 6.50192 61.3833 6.91761C61.3833 7.18179 61.3115 7.41197 61.1677 7.60816C61.0259 7.80435 60.8278 7.95101 60.5733 8.04814L61.5698 9.84882V9.88379H60.9696L60.0488 8.1676ZM59.0524 7.71014H59.9119C60.1897 7.71014 60.4102 7.63827 60.5733 7.49453C60.7384 7.35078 60.821 7.15848 60.821 6.91761C60.821 6.65537 60.7423 6.45432 60.585 6.31447C60.4296 6.17461 60.2042 6.10371 59.909 6.10176H59.0524V7.71014ZM65.3023 9.32727C65.1586 9.53317 64.9575 9.6876 64.6992 9.79055C64.4428 9.89156 64.1436 9.94206 63.8017 9.94206C63.456 9.94206 63.1491 9.86145 62.881 9.70022C62.6129 9.53705 62.4051 9.3059 62.2575 9.00676C62.1118 8.70761 62.037 8.36088 62.0331 7.96655V7.59651C62.0331 6.95743 62.1817 6.46209 62.4789 6.1105C62.778 5.75891 63.1976 5.58312 63.7376 5.58312C64.1805 5.58312 64.537 5.69675 64.807 5.92402C65.077 6.14935 65.2421 6.46986 65.3023 6.88556H64.7429C64.638 6.32418 64.3039 6.04349 63.7405 6.04349C63.3656 6.04349 63.0811 6.17558 62.8868 6.43976C62.6945 6.70199 62.5974 7.08272 62.5955 7.58194V7.92867C62.5955 8.40458 62.7042 8.78337 62.9218 9.06503C63.1393 9.34475 63.4336 9.48461 63.8047 9.48461C64.0144 9.48461 64.198 9.4613 64.3553 9.41468C64.5127 9.36806 64.6428 9.28939 64.7458 9.17867V8.22587H63.7639V7.77133H65.3023V9.32727ZM68.6356 7.92285H66.7971V9.42633H68.9328V9.88379H66.2376V5.64139H68.9037V6.10176H66.7971V7.46539H68.6356V7.92285ZM72.6187 6.10176H71.2551V9.88379H70.6985V6.10176H69.3378V5.64139H72.6187V6.10176Z" fill="#010005"/>
<path d="M104.337 6.10176H102.974V9.88379H102.417V6.10176H101.056V5.64139H104.337V6.10176ZM108.148 7.89954C108.148 8.31523 108.078 8.67847 107.939 8.98927C107.799 9.29813 107.601 9.53414 107.344 9.69731C107.088 9.86048 106.789 9.94206 106.447 9.94206C106.113 9.94206 105.816 9.86048 105.558 9.69731C105.3 9.5322 105.099 9.29813 104.955 8.9951C104.813 8.69013 104.74 8.33757 104.736 7.93741V7.63147C104.736 7.22355 104.807 6.86322 104.949 6.55048C105.091 6.23774 105.291 5.99881 105.549 5.8337C105.81 5.66665 106.107 5.58312 106.441 5.58312C106.781 5.58312 107.08 5.66567 107.338 5.83079C107.599 5.99395 107.799 6.23191 107.939 6.54465C108.078 6.85545 108.148 7.21772 108.148 7.63147V7.89954ZM107.592 7.62565C107.592 7.12254 107.491 6.73696 107.289 6.46889C107.087 6.19889 106.804 6.06388 106.441 6.06388C106.087 6.06388 105.809 6.19889 105.605 6.46889C105.403 6.73696 105.299 7.10991 105.293 7.58777V7.89954C105.293 8.3871 105.395 8.77074 105.599 9.05046C105.805 9.32824 106.087 9.46713 106.447 9.46713C106.808 9.46713 107.088 9.33601 107.286 9.07377C107.484 8.80959 107.586 8.43178 107.592 7.94033V7.62565Z" fill="#010005"/>
</svg>
