<svg width="88" height="55" viewBox="0 0 88 55" fill="none" xmlns="http://www.w3.org/2000/svg">
<g id="Kasten1">
<rect id="Rectangle 177" x="0.373961" y="1.03607" width="87.1835" height="53.0618" rx="3.28299" fill="white" stroke="black" stroke-width="0.345577"/>
<path id="Rectangle 178" d="M33.203 1.08691H3.86154C1.95296 1.08691 0.405762 2.63412 0.405762 4.54269V7.93074C0.405762 9.83931 1.95296 11.3865 3.86154 11.3865H33.203" stroke="black" stroke-width="0.345577"/>
<path id="Rectangle 179" d="M61.45 1.08691H32.1086C30.2 1.08691 28.6528 2.63412 28.6528 4.54269V7.93074C28.6528 9.83931 30.2 11.3865 32.1086 11.3865H61.45" stroke="black" stroke-width="0.345577"/>
<path id="Rectangle 180" d="M84.7764 1.08691H60.3562C58.4476 1.08691 56.9004 2.63412 56.9004 4.54269V7.93074C56.9004 9.83931 58.4476 11.3865 60.3562 11.3865H87.7304" stroke="black" stroke-width="0.345577"/>
<path id="DON&#226;&#128;&#153;T" d="M9.10246 7.81836V4.87015H9.93468C10.1912 4.87015 10.4179 4.92685 10.615 5.04024C10.8121 5.15363 10.964 5.31495 11.0706 5.52418C11.1786 5.73342 11.2333 5.9737 11.2346 6.24504V6.43335C11.2346 6.71143 11.1806 6.95509 11.0727 7.16433C10.966 7.37356 10.8128 7.5342 10.613 7.64625C10.4146 7.75829 10.1831 7.81566 9.91848 7.81836H9.10246ZM9.49123 5.19008V7.50046H9.90025C10.1999 7.50046 10.4328 7.40731 10.5988 7.22102C10.7662 7.03474 10.8499 6.76948 10.8499 6.42525V6.25314C10.8499 5.91836 10.7709 5.6585 10.613 5.47356C10.4564 5.28727 10.2337 5.19278 9.9448 5.19008H9.49123ZM14.0917 6.43942C14.0917 6.72831 14.0431 6.98074 13.9459 7.19672C13.8487 7.41136 13.7111 7.57538 13.5329 7.68877C13.3547 7.80216 13.1468 7.85886 12.9092 7.85886C12.677 7.85886 12.4712 7.80216 12.2916 7.68877C12.1121 7.57403 11.9724 7.41136 11.8725 7.20077C11.7739 6.98884 11.7233 6.74383 11.7206 6.46575V6.25314C11.7206 5.96965 11.7699 5.71925 11.8684 5.50191C11.967 5.28457 12.106 5.11854 12.2855 5.00379C12.4664 4.8877 12.673 4.82965 12.9052 4.82965C13.1414 4.82965 13.3493 4.88703 13.5288 5.00177C13.7097 5.11516 13.8487 5.28052 13.9459 5.49786C14.0431 5.71385 14.0917 5.96561 14.0917 6.25314V6.43942ZM13.705 6.24909C13.705 5.89946 13.6348 5.6315 13.4944 5.44521C13.354 5.25758 13.1576 5.16376 12.9052 5.16376C12.6595 5.16376 12.4658 5.25758 12.324 5.44521C12.1836 5.6315 12.1114 5.89069 12.1074 6.22276V6.43942C12.1074 6.77825 12.1782 7.04486 12.32 7.23925C12.4631 7.43228 12.6595 7.5288 12.9092 7.5288C13.1603 7.5288 13.3547 7.43768 13.4924 7.25545C13.6301 7.07186 13.7009 6.8093 13.705 6.46777V6.24909ZM16.9407 7.81836H16.5499L15.0657 5.54646V7.81836H14.6749V4.87015H15.0657L16.554 7.15218V4.87015H16.9407V7.81836ZM17.5988 5.70035L17.3862 5.55456C17.5117 5.37907 17.5765 5.19413 17.5806 4.99974V4.70816H17.9511V4.97139C17.9498 5.10639 17.916 5.24138 17.8499 5.37637C17.7851 5.51001 17.7014 5.618 17.5988 5.70035ZM20.4984 5.19008H19.5508V7.81836H19.164V5.19008H18.2184V4.87015H20.4984V5.19008Z" fill="black"/>
<path id="FORGET" d="M37.9857 6.51637H36.7486V7.81836H36.3598V4.87015H38.1862V5.19008H36.7486V6.19846H37.9857V6.51637ZM40.9198 6.43942C40.9198 6.72831 40.8712 6.98074 40.774 7.19672C40.6768 7.41136 40.5391 7.57538 40.3609 7.68877C40.1827 7.80216 39.9748 7.85886 39.7373 7.85886C39.5051 7.85886 39.2992 7.80216 39.1197 7.68877C38.9401 7.57403 38.8004 7.41136 38.7005 7.20077C38.602 6.98884 38.5514 6.74383 38.5487 6.46575V6.25314C38.5487 5.96965 38.5979 5.71925 38.6965 5.50191C38.795 5.28457 38.9341 5.11854 39.1136 5.00379C39.2945 4.8877 39.501 4.82965 39.7332 4.82965C39.9694 4.82965 40.1773 4.88703 40.3569 5.00177C40.5378 5.11516 40.6768 5.28052 40.774 5.49786C40.8712 5.71385 40.9198 5.96561 40.9198 6.25314V6.43942ZM40.533 6.24909C40.533 5.89946 40.4628 5.6315 40.3224 5.44521C40.1821 5.25758 39.9856 5.16376 39.7332 5.16376C39.4875 5.16376 39.2938 5.25758 39.1521 5.44521C39.0117 5.6315 38.9395 5.89069 38.9354 6.22276V6.43942C38.9354 6.77825 39.0063 7.04486 39.148 7.23925C39.2911 7.43228 39.4875 7.5288 39.7373 7.5288C39.9883 7.5288 40.1827 7.43768 40.3204 7.25545C40.4581 7.07186 40.529 6.8093 40.533 6.46777V6.24909ZM42.5842 6.62571H41.8917V7.81836H41.5009V4.87015H42.4769C42.809 4.87015 43.0641 4.94575 43.2423 5.09694C43.4218 5.24813 43.5116 5.46816 43.5116 5.75704C43.5116 5.94063 43.4617 6.1006 43.3618 6.23694C43.2632 6.37328 43.1255 6.4752 42.9487 6.54269L43.6412 7.79406V7.81836H43.2241L42.5842 6.62571ZM41.8917 6.30781H42.4891C42.6821 6.30781 42.8353 6.25786 42.9487 6.15797C43.0634 6.05807 43.1208 5.92443 43.1208 5.75704C43.1208 5.57481 43.0661 5.43509 42.9568 5.3379C42.8488 5.2407 42.6922 5.19143 42.487 5.19008H41.8917V6.30781ZM46.2351 7.43161C46.1352 7.5747 45.9955 7.68202 45.8159 7.75356C45.6377 7.82376 45.4298 7.85886 45.1923 7.85886C44.952 7.85886 44.7387 7.80284 44.5524 7.69079C44.3661 7.5774 44.2217 7.41676 44.1191 7.20887C44.0178 7.00099 43.9659 6.76003 43.9632 6.486V6.22884C43.9632 5.78472 44.0664 5.44049 44.273 5.19616C44.4809 4.95182 44.7724 4.82965 45.1477 4.82965C45.4555 4.82965 45.7032 4.90862 45.8908 5.06656C46.0785 5.22315 46.1932 5.44589 46.2351 5.73477H45.8463C45.7734 5.34465 45.5412 5.14958 45.1497 5.14958C44.8892 5.14958 44.6914 5.24138 44.5564 5.42497C44.4228 5.6072 44.3553 5.87179 44.354 6.21871V6.45967C44.354 6.7904 44.4296 7.05363 44.5807 7.24937C44.7319 7.44376 44.9364 7.54095 45.1943 7.54095C45.3401 7.54095 45.4676 7.52475 45.577 7.49236C45.6863 7.45996 45.7768 7.40529 45.8483 7.32834V6.66621H45.1659V6.35033H46.2351V7.43161ZM48.5515 6.45562H47.2738V7.50046H48.758V7.81836H46.885V4.87015H48.7378V5.19008H47.2738V6.13772H48.5515V6.45562ZM51.3195 5.19008H50.3719V7.81836H49.9851V5.19008H49.0395V4.87015H51.3195V5.19008Z" fill="black"/>
<path id="TO" d="M71.93 5.19008H70.9824V7.81836H70.5956V5.19008H69.65V4.87015H71.93V5.19008ZM74.5785 6.43942C74.5785 6.72831 74.5299 6.98074 74.4327 7.19672C74.3355 7.41136 74.1979 7.57538 74.0197 7.68877C73.8415 7.80216 73.6336 7.85886 73.396 7.85886C73.1638 7.85886 72.958 7.80216 72.7784 7.68877C72.5989 7.57403 72.4592 7.41136 72.3593 7.20077C72.2607 6.98884 72.2101 6.74383 72.2074 6.46575V6.25314C72.2074 5.96965 72.2567 5.71925 72.3552 5.50191C72.4538 5.28457 72.5928 5.11854 72.7723 5.00379C72.9532 4.8877 73.1598 4.82965 73.392 4.82965C73.6282 4.82965 73.8361 4.88703 74.0156 5.00177C74.1965 5.11516 74.3355 5.28052 74.4327 5.49786C74.5299 5.71385 74.5785 5.96561 74.5785 6.25314V6.43942ZM74.1918 6.24909C74.1918 5.89946 74.1216 5.6315 73.9812 5.44521C73.8408 5.25758 73.6444 5.16376 73.392 5.16376C73.1463 5.16376 72.9526 5.25758 72.8108 5.44521C72.6704 5.6315 72.5982 5.89069 72.5942 6.22276V6.43942C72.5942 6.77825 72.665 7.04486 72.8068 7.23925C72.9499 7.43228 73.1463 7.5288 73.396 7.5288C73.6471 7.5288 73.8415 7.43768 73.9792 7.25545C74.1169 7.07186 74.1877 6.8093 74.1918 6.46777V6.24909Z" fill="black"/>
</g>
</svg>
