<svg width="57" height="34" viewBox="0 0 57 34" fill="none" xmlns="http://www.w3.org/2000/svg">
<g id="Kasten4">
<rect id="Rectangle 177" x="0.275328" y="1.15326" width="56.3536" height="31.8" rx="3.28299" fill="white" stroke="black" stroke-width="0.345577"/>
<path id="Rectangle 178" d="M33.1043 1.2041H3.7629C1.85433 1.2041 0.307129 2.75131 0.307129 4.65988V8.04793C0.307129 9.9565 1.85433 11.5037 3.7629 11.5037H33.1043" stroke="black" stroke-width="0.345577"/>
<path id="Rectangle 179" d="M53.8003 1.2041H32.01C30.1014 1.2041 28.5542 2.75131 28.5542 4.65988V8.04793C28.5542 9.9565 30.1014 11.5037 32.01 11.5037H56.8018" stroke="black" stroke-width="0.345577"/>
<path id="HEAD" d="M11.2697 7.93555H10.8789V6.57281H9.3926V7.93555H9.00382V4.98734H9.3926V6.25491H10.8789V4.98734H11.2697V7.93555ZM13.6266 6.57281H12.3489V7.61764H13.8331V7.93555H11.9601V4.98734H13.8129V5.30727H12.3489V6.25491H13.6266V6.57281ZM15.9451 7.1661H14.7099L14.4325 7.93555H14.0316L15.1574 4.98734H15.4976L16.6254 7.93555H16.2265L15.9451 7.1661ZM14.8273 6.84617H15.8297L15.3275 5.46723L14.8273 6.84617ZM17.0223 7.93555V4.98734H17.8545C18.111 4.98734 18.3378 5.04404 18.5349 5.15743C18.732 5.27082 18.8838 5.43214 18.9905 5.64137C19.0985 5.85061 19.1531 6.09089 19.1545 6.36222V6.55054C19.1545 6.82862 19.1005 7.07228 18.9925 7.28151C18.8859 7.49075 18.7326 7.65139 18.5329 7.76343C18.3344 7.87548 18.1029 7.93285 17.8383 7.93555H17.0223ZM17.4111 5.30727V7.61764H17.8201C18.1198 7.61764 18.3526 7.5245 18.5187 7.33821C18.6861 7.15192 18.7698 6.88667 18.7698 6.54244V6.37032C18.7698 6.03555 18.6908 5.77569 18.5329 5.59075C18.3763 5.40446 18.1535 5.30997 17.8646 5.30727H17.4111Z" fill="black"/>
<path id="TOO" d="M40.2464 5.30727H39.2988V7.93555H38.912V5.30727H37.9664V4.98734H40.2464V5.30727ZM42.8949 6.55661C42.8949 6.84549 42.8463 7.09793 42.7491 7.31391C42.652 7.52855 42.5143 7.69256 42.3361 7.80596C42.1579 7.91935 41.95 7.97604 41.7124 7.97604C41.4802 7.97604 41.2744 7.91935 41.0948 7.80596C40.9153 7.69121 40.7756 7.52855 40.6757 7.31796C40.5771 7.10603 40.5265 6.86102 40.5238 6.58294V6.37032C40.5238 6.08684 40.5731 5.83643 40.6716 5.6191C40.7702 5.40176 40.9092 5.23572 41.0888 5.12098C41.2696 5.00489 41.4762 4.94684 41.7084 4.94684C41.9446 4.94684 42.1525 5.00421 42.332 5.11896C42.5129 5.23235 42.652 5.39771 42.7491 5.61505C42.8463 5.83103 42.8949 6.08279 42.8949 6.37032V6.55661ZM42.5082 6.36627C42.5082 6.01665 42.438 5.74869 42.2976 5.5624C42.1572 5.37476 41.9608 5.28094 41.7084 5.28094C41.4627 5.28094 41.269 5.37476 41.1272 5.5624C40.9868 5.74869 40.9146 6.00787 40.9106 6.33995V6.55661C40.9106 6.89544 40.9814 7.16205 41.1232 7.35643C41.2663 7.54947 41.4627 7.64599 41.7124 7.64599C41.9635 7.64599 42.1579 7.55487 42.2956 7.37263C42.4333 7.18905 42.5041 6.92649 42.5082 6.58496V6.36627ZM45.7459 6.55661C45.7459 6.84549 45.6974 7.09793 45.6002 7.31391C45.503 7.52855 45.3653 7.69256 45.1871 7.80596C45.0089 7.91935 44.801 7.97604 44.5634 7.97604C44.3312 7.97604 44.1254 7.91935 43.9458 7.80596C43.7663 7.69121 43.6266 7.52855 43.5267 7.31796C43.4281 7.10603 43.3775 6.86102 43.3748 6.58294V6.37032C43.3748 6.08684 43.4241 5.83643 43.5226 5.6191C43.6212 5.40176 43.7602 5.23572 43.9398 5.12098C44.1207 5.00489 44.3272 4.94684 44.5594 4.94684C44.7956 4.94684 45.0035 5.00421 45.183 5.11896C45.3639 5.23235 45.503 5.39771 45.6002 5.61505C45.6974 5.83103 45.7459 6.08279 45.7459 6.37032V6.55661ZM45.3592 6.36627C45.3592 6.01665 45.289 5.74869 45.1486 5.5624C45.0082 5.37476 44.8118 5.28094 44.5594 5.28094C44.3137 5.28094 44.12 5.37476 43.9782 5.5624C43.8378 5.74869 43.7656 6.00787 43.7616 6.33995V6.55661C43.7616 6.89544 43.8324 7.16205 43.9742 7.35643C44.1173 7.54947 44.3137 7.64599 44.5634 7.64599C44.8145 7.64599 45.0089 7.55487 45.1466 7.37263C45.2843 7.18905 45.3551 6.92649 45.3592 6.58496V6.36627Z" fill="black"/>
</g>
</svg>
