<svg width="1565" height="247" viewBox="0 0 1565 247" fill="none" xmlns="http://www.w3.org/2000/svg">
<path id = "Herzkurve" d="M17.4771 64.3024L8.20461 56.2979C6.08357 54.4669 2.79224 55.9737 2.79224 58.7757V84.0982C2.79224 85.906 4.25777 87.3715 6.06561 87.3715H473.642C475.45 87.3715 476.915 85.906 476.915 84.0982V34.9057C476.915 33.9649 476.51 33.0697 475.804 32.4482L460.808 19.2528C459.104 17.7537 456.429 18.4009 455.599 20.5129L447.292 41.6491C446.8 42.9016 445.591 43.7252 444.245 43.7252H438.047C437.435 43.7252 436.835 43.5536 436.315 43.2299L426.276 36.9738C425.06 36.2159 423.493 36.3371 422.408 37.2728L407.381 50.2303C405.716 51.6652 403.139 51.0855 402.25 49.0762L397.522 38.3966C396.395 35.8502 392.806 35.7848 391.586 38.2884L376.926 68.392C375.627 71.0589 371.735 70.7614 370.856 67.928L364.068 46.0293C363.643 44.6591 362.376 43.7252 360.941 43.7252H355.021C353.84 43.7252 352.751 44.3615 352.17 45.3903L344.917 58.2478C343.639 60.5134 340.357 60.4552 339.16 58.1457L334.117 48.4155C333.212 46.6692 330.983 46.1097 329.36 47.2218L321.602 52.54C321.057 52.9136 320.412 53.1135 319.751 53.1135H292.169C291.484 53.1135 290.816 52.8986 290.26 52.4989L282.704 47.0729C281.217 46.0048 279.143 46.3644 278.102 47.8708L268.265 62.1057C267.654 62.9902 266.648 63.5182 265.572 63.5182H251.373C250.705 63.5182 250.052 63.7227 249.504 64.1042L241.066 69.9719C239.503 71.0595 237.344 70.5872 236.377 68.946L227.999 54.7254C227.411 53.7266 226.338 53.1135 225.179 53.1135H219.747C218.991 53.1135 218.259 53.3752 217.674 53.8542L206.776 62.7775C206.191 63.2565 205.458 63.5182 204.702 63.5182H198.644C197.842 63.5182 197.069 63.8123 196.469 64.3447L188.799 71.1606C188.2 71.693 187.426 71.9871 186.625 71.9871H176.386C175.291 71.9871 174.268 71.4391 173.661 70.527L156.014 44.0048C155.407 43.0928 154.384 42.5447 153.288 42.5447H137.498C136.246 42.5447 135.104 41.8307 134.555 40.7052L127.677 26.5897C126.62 24.4196 123.657 24.1016 122.163 25.998L116.844 32.7502C116.224 33.5381 115.276 33.998 114.273 33.998H106.57C105.736 33.998 104.934 34.316 104.327 34.8873L97.1332 41.6554C96.526 42.2267 95.7238 42.5447 94.8902 42.5447H84.8087C83.8349 42.5447 82.9118 42.9783 82.2899 43.7275L76.0635 51.2292C74.4323 53.1946 71.2789 52.6178 70.449 50.2023L56.0148 8.19312C55.0697 5.44238 51.2745 5.19848 49.985 7.80562L22.5502 63.2758C21.6014 65.1941 19.0971 65.7009 17.4771 64.3024Z" fill="#1A0404" stroke="#010005" stroke-width="4.11431" stroke-linecap="round" stroke-linejoin="round"/>
<path id = "Soundfeld" fill-rule="evenodd" clip-rule="evenodd" d="M16.9247 10.6515C22.7949 10.6515 27.5536 5.89272 27.5536 0.0225077C27.5536 0.0224921 27.5536 0.0224765 27.5536 0.0224609H74.7839V58.7338H0.77002V0.0224609H6.29572C6.29572 0.0224765 6.29572 0.0224921 6.29572 0.0225077C6.29572 5.89272 11.0545 10.6515 16.9247 10.6515Z" fill="#C4C4C4"/>
<path id = "Yu" d="M1.0625 1.36523H8.40918L16.5435 17.8956L25.2023 1.36523H32.2867L20.2169 24.7177V38.0994H59.7536L56.6857 36.3476L53.6179 34.0016L52.2644 31.7458L51.339 29.393V1.36523H58.0185V25.2943V27.4279L58.4221 28.9272L59.3447 30.8302L60.4981 31.7458L61.9397 32.7331L63.6696 33.1368H65.3419H67.2427L68.8018 32.7331L70.5813 31.7458L71.3391 30.8302L72.3194 28.9272L72.9273 26.9636V1.36523H78.8825V26.9636V29.393L77.6193 32.3774L75.9049 34.9941L73.5589 36.889L70.5813 38.0994L67.2427 38.9643H63.9944L59.7536 38.0994H20.2169H13.6572V24.7177L1.0625 1.36523Z" fill="black"/>
<path d="M20.2169 38.0994V24.7177L32.2867 1.36523H25.2023L16.5435 17.8956L8.40918 1.36523H1.0625L13.6572 24.7177V38.0994H20.2169ZM20.2169 38.0994H59.7536M59.7536 38.0994L56.6857 36.3476L53.6179 34.0016L52.2644 31.7458L51.339 29.393V1.36523H58.0185V25.2943V27.4279L58.4221 28.9272L59.3447 30.8302L60.4981 31.7458L61.9397 32.7331L63.6696 33.1368H65.3419H67.2427L68.8018 32.7331L70.5813 31.7458L71.3391 30.8302L72.3194 28.9272L72.9273 26.9636V1.36523H78.8825V26.9636V29.393L77.6193 32.3774L75.9049 34.9941L73.5589 36.889L70.5813 38.0994L67.2427 38.9643H63.9944L59.7536 38.0994Z" stroke="black" stroke-linecap="round" stroke-linejoin="round"/>
</svg>
