<svg width="1565" height="247" viewBox="0 0 1565 247" fill="none" xmlns="http://www.w3.org/2000/svg">
<path id = "Herzkurve" d="M17.4771 64.3024L8.20461 56.2979C6.08357 54.4669 2.79224 55.9737 2.79224 58.7757V84.0982C2.79224 85.906 4.25777 87.3715 6.06561 87.3715H473.642C475.45 87.3715 476.915 85.906 476.915 84.0982V34.9057C476.915 33.9649 476.51 33.0697 475.804 32.4482L460.808 19.2528C459.104 17.7537 456.429 18.4009 455.599 20.5129L447.292 41.6491C446.8 42.9016 445.591 43.7252 444.245 43.7252H438.047C437.435 43.7252 436.835 43.5536 436.315 43.2299L426.276 36.9738C425.06 36.2159 423.493 36.3371 422.408 37.2728L407.381 50.2303C405.716 51.6652 403.139 51.0855 402.25 49.0762L397.522 38.3966C396.395 35.8502 392.806 35.7848 391.586 38.2884L376.926 68.392C375.627 71.0589 371.735 70.7614 370.856 67.928L364.068 46.0293C363.643 44.6591 362.376 43.7252 360.941 43.7252H355.021C353.84 43.7252 352.751 44.3615 352.17 45.3903L344.917 58.2478C343.639 60.5134 340.357 60.4552 339.16 58.1457L334.117 48.4155C333.212 46.6692 330.983 46.1097 329.36 47.2218L321.602 52.54C321.057 52.9136 320.412 53.1135 319.751 53.1135H292.169C291.484 53.1135 290.816 52.8986 290.26 52.4989L282.704 47.0729C281.217 46.0048 279.143 46.3644 278.102 47.8708L268.265 62.1057C267.654 62.9902 266.648 63.5182 265.572 63.5182H251.373C250.705 63.5182 250.052 63.7227 249.504 64.1042L241.066 69.9719C239.503 71.0595 237.344 70.5872 236.377 68.946L227.999 54.7254C227.411 53.7266 226.338 53.1135 225.179 53.1135H219.747C218.991 53.1135 218.259 53.3752 217.674 53.8542L206.776 62.7775C206.191 63.2565 205.458 63.5182 204.702 63.5182H198.644C197.842 63.5182 197.069 63.8123 196.469 64.3447L188.799 71.1606C188.2 71.693 187.426 71.9871 186.625 71.9871H176.386C175.291 71.9871 174.268 71.4391 173.661 70.527L156.014 44.0048C155.407 43.0928 154.384 42.5447 153.288 42.5447H137.498C136.246 42.5447 135.104 41.8307 134.555 40.7052L127.677 26.5897C126.62 24.4196 123.657 24.1016 122.163 25.998L116.844 32.7502C116.224 33.5381 115.276 33.998 114.273 33.998H106.57C105.736 33.998 104.934 34.316 104.327 34.8873L97.1332 41.6554C96.526 42.2267 95.7238 42.5447 94.8902 42.5447H84.8087C83.8349 42.5447 82.9118 42.9783 82.2899 43.7275L76.0635 51.2292C74.4323 53.1946 71.2789 52.6178 70.449 50.2023L56.0148 8.19312C55.0697 5.44238 51.2745 5.19848 49.985 7.80562L22.5502 63.2758C21.6014 65.1941 19.0971 65.7009 17.4771 64.3024Z" fill="#1A0404" stroke="#010005" stroke-width="4.11431" stroke-linecap="round" stroke-linejoin="round"/>
<path id = "Soundfeld" fill-rule="evenodd" clip-rule="evenodd" d="M16.9247 10.6515C22.7949 10.6515 27.5536 5.89272 27.5536 0.0225077C27.5536 0.0224921 27.5536 0.0224765 27.5536 0.0224609H74.7839V58.7338H0.77002V0.0224609H6.29572C6.29572 0.0224765 6.29572 0.0224921 6.29572 0.0225077C6.29572 5.89272 11.0545 10.6515 16.9247 10.6515Z" fill="#C4C4C4"/>
<path id = "Yu" d="M0.80957 0.68457H11.5396L23.4201 24.8277L36.0665 0.68457H46.4136L28.7852 34.7916V54.336H67.1382L62.6575 51.7774L58.1768 48.351L56.2001 45.0564L54.8484 41.6201V0.68457H64.604V35.6338V38.75L65.1936 40.9398L66.5411 43.7191L68.2255 45.0564L70.3311 46.4984L72.8577 47.0879H75.3002H78.0764L80.3535 46.4984L82.9524 45.0564L84.0592 43.7191L85.491 40.9398L86.3788 38.0717V0.68457H95.0767V38.0717V41.6201L93.2317 45.9789L90.7277 49.8006L87.3013 52.5681L82.9524 54.336L78.0764 55.5992H73.3321L67.1382 54.336H28.7852H19.2046V34.7916L0.80957 0.68457Z" fill="black"/>
<path d="M28.7852 54.336V34.7916L46.4136 0.68457H36.0665L23.4201 24.8277L11.5396 0.68457H0.80957L19.2046 34.7916V54.336H28.7852ZM28.7852 54.336H67.1382M67.1382 54.336L62.6575 51.7774L58.1768 48.351L56.2001 45.0564L54.8484 41.6201V0.68457H64.604V35.6338V38.75L65.1936 40.9398L66.5411 43.7191L68.2255 45.0564L70.3311 46.4984L72.8577 47.0879H75.3002H78.0764L80.3535 46.4984L82.9524 45.0564L84.0592 43.7191L85.491 40.9398L86.3788 38.0717V0.68457H95.0767V38.0717V41.6201L93.2317 45.9789L90.7277 49.8006L87.3013 52.5681L82.9524 54.336L78.0764 55.5992H73.3321L67.1382 54.336Z" stroke="black" stroke-linecap="round" stroke-linejoin="round"/>
<path id = "Strichlinie" d="M72.3013 67.0736C28.3706 71.4962 3.42967 90.2177 0.358398 106.679H294.09V0.907227C252.813 6.80398 228.12 33.7072 200.111 51.766C177.703 66.213 108.644 66.0641 72.3013 67.0736Z" fill="#C4C4C4" stroke="black" stroke-width="0.403807" stroke-dasharray="1.21 2.02"/>





<div id = "Kasten">
<rect x="0.443754" y="0.715727" width="110.307" height="64.132" rx="2.35151" fill="white" stroke="black" stroke-width="0.427547"/>
<rect x="0.392484" y="0.790922" width="40.617" height="11.0406" rx="1.49641" stroke="black" stroke-width="0.427547"/>
<rect x="35.2377" y="0.715727" width="40.617" height="11.1162" rx="1.49641" fill="white" stroke="black" stroke-width="0.427547"/>
<rect x="69.9096" y="0.715727" width="40.617" height="11.1162" rx="1.49641" fill="white" stroke="black" stroke-width="0.427547"/>
<path d="M10.4287 8.41016V4.76265H11.4584C11.7757 4.76265 12.0563 4.83279 12.3001 4.97308C12.5439 5.11337 12.7318 5.31295 12.8638 5.57181C12.9974 5.83068 13.065 6.12796 13.0667 6.46365V6.69663C13.0667 7.04067 12.9999 7.34212 12.8663 7.60099C12.7343 7.85986 12.5448 8.0586 12.2976 8.19722C12.0521 8.33584 11.7657 8.40682 11.4383 8.41016H10.4287ZM10.9097 5.15846V8.01685H11.4158C11.7865 8.01685 12.0746 7.90161 12.2801 7.67113C12.4871 7.44066 12.5907 7.11248 12.5907 6.68661V6.47367C12.5907 6.05948 12.493 5.73799 12.2976 5.50918C12.1039 5.27871 11.8283 5.1618 11.4709 5.15846H10.9097ZM16.6014 6.70414C16.6014 7.06155 16.5413 7.37386 16.4211 7.64107C16.3008 7.90662 16.1305 8.10954 15.91 8.24983C15.6896 8.39011 15.4324 8.46026 15.1384 8.46026C14.8512 8.46026 14.5965 8.39011 14.3744 8.24983C14.1522 8.10787 13.9794 7.90662 13.8558 7.64608C13.7339 7.38388 13.6713 7.08075 13.6679 6.73671V6.47367C13.6679 6.12295 13.7289 5.81314 13.8508 5.54426C13.9727 5.27537 14.1447 5.06995 14.3668 4.92799C14.5906 4.78436 14.8462 4.71254 15.1334 4.71254C15.4257 4.71254 15.6829 4.78352 15.905 4.92548C16.1288 5.06577 16.3008 5.27036 16.4211 5.53925C16.5413 5.80646 16.6014 6.11794 16.6014 6.47367V6.70414ZM16.123 6.46866C16.123 6.0361 16.0361 5.70459 15.8624 5.47411C15.6887 5.24197 15.4457 5.1259 15.1334 5.1259C14.8295 5.1259 14.5898 5.24197 14.4144 5.47411C14.2408 5.70459 14.1514 6.02525 14.1464 6.43609V6.70414C14.1464 7.12334 14.2341 7.45319 14.4094 7.69368C14.5865 7.93251 14.8295 8.05192 15.1384 8.05192C15.4491 8.05192 15.6896 7.93919 15.8599 7.71372C16.0303 7.48659 16.118 7.16175 16.123 6.73922V6.46866ZM20.1262 8.41016H19.6427L17.8064 5.59937V8.41016H17.3229V4.76265H17.8064L19.6477 7.58596V4.76265H20.1262V8.41016ZM20.9404 5.78976L20.6773 5.60939C20.8327 5.39228 20.9128 5.16347 20.9178 4.92298V4.56223H21.3763V4.88791C21.3746 5.05492 21.3329 5.22193 21.251 5.38894C21.1709 5.55428 21.0673 5.68789 20.9404 5.78976ZM24.5278 5.15846H23.3554V8.41016H22.8769V5.15846H21.707V4.76265H24.5278V5.15846Z" fill="#010005"/>
<path d="M46.1098 6.79934H44.5792V8.41016H44.0982V4.76265H46.3578V5.15846H44.5792V6.40603H46.1098V6.79934ZM49.7398 6.70414C49.7398 7.06155 49.6797 7.37386 49.5594 7.64107C49.4392 7.90662 49.2688 8.10954 49.0484 8.24983C48.8279 8.39011 48.5707 8.46026 48.2768 8.46026C47.9895 8.46026 47.7348 8.39011 47.5127 8.24983C47.2906 8.10787 47.1177 7.90662 46.9941 7.64608C46.8722 7.38388 46.8096 7.08075 46.8063 6.73671V6.47367C46.8063 6.12295 46.8672 5.81314 46.9891 5.54426C47.111 5.27537 47.2831 5.06995 47.5052 4.92799C47.729 4.78436 47.9845 4.71254 48.2718 4.71254C48.564 4.71254 48.8212 4.78352 49.0434 4.92548C49.2672 5.06577 49.4392 5.27036 49.5594 5.53925C49.6797 5.80646 49.7398 6.11794 49.7398 6.47367V6.70414ZM49.2613 6.46866C49.2613 6.0361 49.1745 5.70459 49.0008 5.47411C48.8271 5.24197 48.5841 5.1259 48.2718 5.1259C47.9678 5.1259 47.7281 5.24197 47.5528 5.47411C47.3791 5.70459 47.2897 6.02525 47.2847 6.43609V6.70414C47.2847 7.12334 47.3724 7.45319 47.5478 7.69368C47.7248 7.93251 47.9678 8.05192 48.2768 8.05192C48.5874 8.05192 48.8279 7.93919 48.9983 7.71372C49.1686 7.48659 49.2563 7.16175 49.2613 6.73922V6.46866ZM51.799 6.93462H50.9423V8.41016H50.4588V4.76265H51.6663C52.0771 4.76265 52.3928 4.85617 52.6132 5.04323C52.8353 5.23028 52.9464 5.5025 52.9464 5.85991C52.9464 6.08704 52.8846 6.28495 52.761 6.45363C52.6391 6.62231 52.4687 6.7484 52.25 6.83191L53.1067 8.38009V8.41016H52.5907L51.799 6.93462ZM50.9423 6.54131H51.6813C51.9201 6.54131 52.1097 6.47952 52.25 6.35593C52.3919 6.23234 52.4629 6.067 52.4629 5.85991C52.4629 5.63444 52.3953 5.46159 52.26 5.34134C52.1264 5.22109 51.9326 5.16013 51.6788 5.15846H50.9423V6.54131ZM56.3158 7.93167C56.1922 8.1087 56.0194 8.24148 55.7973 8.32999C55.5768 8.41684 55.3196 8.46026 55.0257 8.46026C54.7284 8.46026 54.4645 8.39095 54.234 8.25233C54.0036 8.11204 53.8249 7.9133 53.6979 7.6561C53.5727 7.39891 53.5084 7.10079 53.505 6.76176V6.44361C53.505 5.89414 53.6328 5.46827 53.8883 5.16598C54.1455 4.86369 54.5063 4.71254 54.9706 4.71254C55.3513 4.71254 55.6578 4.81025 55.89 5.00565C56.1221 5.19938 56.2641 5.47495 56.3158 5.83235H55.8348C55.7447 5.34969 55.4574 5.10836 54.9731 5.10836C54.6507 5.10836 54.4061 5.22193 54.2391 5.44906C54.0737 5.67452 53.9902 6.00187 53.9885 6.43108V6.7292C53.9885 7.13837 54.0821 7.46404 54.2691 7.70621C54.4562 7.9467 54.7092 8.06695 55.0282 8.06695C55.2085 8.06695 55.3664 8.04691 55.5017 8.00683C55.6369 7.96674 55.7488 7.8991 55.8373 7.80391V6.98472H54.9931V6.59392H56.3158V7.93167ZM59.1817 6.72419H57.601V8.01685H59.4373V8.41016H57.12V4.76265H59.4122V5.15846H57.601V6.33088H59.1817V6.72419ZM62.6063 5.15846H61.4339V8.41016H60.9554V5.15846H59.7855V4.76265H62.6063V5.15846Z" fill="#010005"/>
<path d="M89.8772 5.15846H88.7047V8.41016H88.2263V5.15846H87.0563V4.76265H89.8772V5.15846ZM93.1539 6.70414C93.1539 7.06155 93.0938 7.37386 92.9735 7.64107C92.8533 7.90662 92.6829 8.10954 92.4625 8.24983C92.242 8.39011 91.9848 8.46026 91.6909 8.46026C91.4036 8.46026 91.1489 8.39011 90.9268 8.24983C90.7047 8.10787 90.5318 7.90662 90.4082 7.64608C90.2863 7.38388 90.2237 7.08075 90.2204 6.73671V6.47367C90.2204 6.12295 90.2813 5.81314 90.4032 5.54426C90.5252 5.27537 90.6972 5.06995 90.9193 4.92799C91.1431 4.78436 91.3986 4.71254 91.6859 4.71254C91.9781 4.71254 92.2353 4.78352 92.4575 4.92548C92.6813 5.06577 92.8533 5.27036 92.9735 5.53925C93.0938 5.80646 93.1539 6.11794 93.1539 6.47367V6.70414ZM92.6754 6.46866C92.6754 6.0361 92.5886 5.70459 92.4149 5.47411C92.2412 5.24197 91.9982 5.1259 91.6859 5.1259C91.3819 5.1259 91.1423 5.24197 90.9669 5.47411C90.7932 5.70459 90.7039 6.02525 90.6988 6.43609V6.70414C90.6988 7.12334 90.7865 7.45319 90.9619 7.69368C91.1389 7.93251 91.3819 8.05192 91.6909 8.05192C92.0015 8.05192 92.242 7.93919 92.4124 7.71372C92.5827 7.48659 92.6704 7.16175 92.6754 6.73922V6.46866Z" fill="#010005"/>
</div>
</svg>
