<svg width="1565" height="247" viewBox="0 0 1565 247" fill="none" xmlns="http://www.w3.org/2000/svg">
<path id = "Herzkurve" d="M25.9809 96.6925L11.9703 84.5977C8.76542 81.8311 3.79224 84.1078 3.79224 88.3417V126.604C3.79224 129.335 6.00665 131.55 8.73827 131.55H715.242C717.974 131.55 720.188 129.335 720.188 126.604V52.2743C720.188 50.8528 719.577 49.5 718.509 48.561L695.85 28.6229C693.276 26.3578 689.234 27.3357 687.979 30.527L675.428 62.4636C674.684 64.356 672.858 65.6004 670.824 65.6004H661.458C660.533 65.6004 659.627 65.3411 658.842 64.852L643.673 55.3991C641.836 54.254 639.467 54.4371 637.828 55.851L615.122 75.4296C612.607 77.5978 608.713 76.7218 607.369 73.6858L600.226 57.5491C598.523 53.7015 593.099 53.6025 591.257 57.3855L569.105 102.872C567.143 106.902 561.261 106.452 559.934 102.171L549.677 69.082C549.035 67.0117 547.12 65.6004 544.953 65.6004H536.008C534.223 65.6004 532.577 66.5619 531.7 68.1164L520.741 87.544C518.81 90.9673 513.85 90.8793 512.041 87.3898L504.422 72.6875C503.055 70.0489 499.685 69.2034 497.234 70.8838L485.512 78.9196C484.688 79.4841 483.713 79.7861 482.715 79.7861H441.038C440.003 79.7861 438.994 79.4613 438.153 78.8575L426.737 70.6588C424.49 69.0449 421.355 69.5883 419.783 71.8645L404.92 93.3732C403.997 94.7097 402.476 95.5075 400.851 95.5075H379.395C378.386 95.5075 377.4 95.8165 376.571 96.3929L363.823 105.259C361.46 106.902 358.198 106.189 356.737 103.709L344.078 82.2216C343.189 80.7125 341.568 79.7861 339.817 79.7861H331.61C330.467 79.7861 329.36 80.1816 328.476 80.9053L312.01 94.3883C311.126 95.1121 310.018 95.5075 308.876 95.5075H299.722C298.511 95.5075 297.342 95.9519 296.437 96.7563L284.847 107.055C283.942 107.86 282.773 108.304 281.562 108.304H266.091C264.436 108.304 262.89 107.476 261.973 106.098L235.308 66.023C234.391 64.6449 232.846 63.8168 231.191 63.8168H207.332C205.44 63.8168 203.714 62.7379 202.885 61.0373L192.493 39.7089C190.895 36.4298 186.418 35.9494 184.161 38.8149L176.124 49.0173C175.186 50.2078 173.754 50.9027 172.239 50.9027H160.599C159.34 50.9027 158.128 51.3833 157.21 52.2464L146.341 62.4731C145.423 63.3362 144.211 63.8168 142.951 63.8168H127.718C126.247 63.8168 124.852 64.4719 123.913 65.604L114.505 76.939C112.04 79.9086 107.275 79.0371 106.021 75.3873L84.2112 11.9118C82.7831 7.75545 77.0485 7.38693 75.1001 11.3263L33.6464 95.1412C32.2128 98.0399 28.4288 98.8056 25.9809 96.6925Z" fill="#1A0404" stroke="#010005" stroke-width="6.21669" stroke-linecap="round" stroke-linejoin="round"/>
<path id = "Soundfeld" fill-rule="evenodd" clip-rule="evenodd" d="M16.9247 10.6515C22.7949 10.6515 27.5536 5.89272 27.5536 0.0225077C27.5536 0.0224921 27.5536 0.0224765 27.5536 0.0224609H74.7839V58.7338H0.77002V0.0224609H6.29572C6.29572 0.0224765 6.29572 0.0224921 6.29572 0.0225077C6.29572 5.89272 11.0545 10.6515 16.9247 10.6515Z" fill="#C4C4C4"/>
</svg>
