<svg width="41" height="32" viewBox="0 0 41 32" fill="none" xmlns="http://www.w3.org/2000/svg">
<path fill-rule="evenodd" clip-rule="evenodd" d="M0.296875 18.5563L0.296875 22.1221H2.20157L2.20157 18.5563H0.296875ZM9.40991 16.5947V13.029H11.1541V11.125V11.1246V7.57578H13.0588V11.1246H16.712V13.0293H11.3146V16.5947H9.40991ZM12.9805 5.6705V3.93465H14.8852V5.6705H18.5384V7.5752H12.9805V5.6709V5.6705ZM38.2781 19.7545L38.2781 5.83887H34.7412V3.93417H38.2781L38.2781 3.93458H40.4209V21.6592H38.5139H38.2781H34.5059V19.7545H38.2781ZM18.5386 23.9541V25.7285H20.4433V23.9541H25.7474V22.0494H2.20166L2.20166 23.9541H18.5386ZM16.6187 29.2779V25.7292H18.5233V29.2779H22.1765V27.3736H23.8945V29.2783H22.1766V31.1826H16.6187V31.085V29.2779ZM29.2505 2.02987L29.2505 3.93457L34.7411 3.93457V2.02987L29.2505 2.02987ZM16.6187 2.0293V0.124599H29.2504V2.0293H16.6187ZM14.9006 2.02987V3.93457H16.6186L16.6186 2.02987H14.9006ZM23.8945 25.4683V27.373H27.4316V25.4683H23.8945ZM27.4316 25.4688V23.5641H30.9687V25.4688H27.4316ZM30.9688 21.6588V23.5635H34.5058V21.6588H30.9688ZM2.20166 18.5V16.5953H16.6188V18.5H2.20166Z" fill="black"/>
</svg>
