<svg width="42" height="33" viewBox="0 0 42 33" fill="none" xmlns="http://www.w3.org/2000/svg">
<path fill-rule="evenodd" clip-rule="evenodd" d="M11.814 14.0418V8.57503H13.7178V4.95811H15.5401V3.08176H17.3079V1.15039H29.9274V3.08176H35.3668V5.06706H41.1598V22.582H35.2036V24.7034H31.6952V26.5528H28.1052V28.4294H24.5695V30.306H22.8833V32.237H17.2535V26.7704H19.1573V24.9482H2.94776V23.0444H0.989502V19.6447H2.83891V17.5506H10.1006V14.0418H11.814ZM15.5607 6.58732V5.01213H17.2696V3.22266H29.8463V5.01213H35.1333V6.72022H38.925V20.6587H34.9731V22.5812H31.3416V24.5038H27.7636V26.3462H24.2389V28.2421H22.53V30.1646H19.1388V26.9871H21.4085V24.931H26.3751V22.9017H3.22437V19.4304H17.2697V17.4544H12.0628V14.2769H17.7503V12.1407H14.1189V8.42915H19.1923V6.58732H15.5607Z" fill="black"/>
<path d="M11.814 8.57503V8.07503H11.314V8.57503H11.814ZM11.814 14.0418V14.5418H12.314V14.0418H11.814ZM13.7178 8.57503V9.07503H14.2178V8.57503H13.7178ZM13.7178 4.95811V4.45811H13.2178V4.95811H13.7178ZM15.5401 4.95811V5.45811H16.0401V4.95811H15.5401ZM15.5401 3.08176V2.58176H15.0401V3.08176H15.5401ZM17.3079 3.08176V3.58176H17.8079V3.08176H17.3079ZM17.3079 1.15039V0.650391H16.8079V1.15039H17.3079ZM29.9274 1.15039H30.4274V0.650391H29.9274V1.15039ZM29.9274 3.08176H29.4274V3.58176H29.9274V3.08176ZM35.3668 3.08176H35.8668V2.58176H35.3668V3.08176ZM35.3668 5.06706H34.8668V5.56706H35.3668V5.06706ZM41.1598 5.06706H41.6598V4.56706H41.1598V5.06706ZM41.1598 22.582V23.082H41.6598V22.582H41.1598ZM35.2036 22.582V22.082H34.7036V22.582H35.2036ZM35.2036 24.7034V25.2034H35.7036V24.7034H35.2036ZM31.6952 24.7034V24.2034H31.1952V24.7034H31.6952ZM31.6952 26.5528V27.0528H32.1952V26.5528H31.6952ZM28.1052 26.5528V26.0528H27.6052V26.5528H28.1052ZM28.1052 28.4294V28.9294H28.6052V28.4294H28.1052ZM24.5695 28.4294V27.9294H24.0695V28.4294H24.5695ZM24.5695 30.306V30.806H25.0695V30.306H24.5695ZM22.8833 30.306V29.806H22.3833V30.306H22.8833ZM22.8833 32.237V32.737H23.3833V32.237H22.8833ZM17.2535 32.237H16.7535V32.737H17.2535V32.237ZM17.2535 26.7704V26.2704H16.7535V26.7704H17.2535ZM19.1573 26.7704V27.2704H19.6573V26.7704H19.1573ZM19.1573 24.9482H19.6573V24.4482H19.1573V24.9482ZM2.94776 24.9482H2.44776V25.4482H2.94776V24.9482ZM2.94776 23.0444H3.44776V22.5444H2.94776V23.0444ZM0.989502 23.0444H0.489502V23.5444H0.989502V23.0444ZM0.989502 19.6447V19.1447H0.489502V19.6447H0.989502ZM2.83891 19.6447V20.1447H3.33891V19.6447H2.83891ZM2.83891 17.5506V17.0506H2.33891V17.5506H2.83891ZM10.1006 17.5506V18.0506H10.6006V17.5506H10.1006ZM10.1006 14.0418V13.5418H9.60056V14.0418H10.1006ZM15.5607 5.01213V4.51213H15.0607V5.01213H15.5607ZM15.5607 6.58732H15.0607V7.08732H15.5607V6.58732ZM17.2696 5.01213V5.51213H17.7696V5.01213H17.2696ZM17.2696 3.22266V2.72266H16.7696V3.22266H17.2696ZM29.8463 3.22266H30.3463V2.72266H29.8463V3.22266ZM29.8463 5.01213H29.3463V5.51213H29.8463V5.01213ZM35.1333 5.01213H35.6333V4.51213H35.1333V5.01213ZM35.1333 6.72022H34.6333V7.22022H35.1333V6.72022ZM38.925 6.72022H39.425V6.22022H38.925V6.72022ZM38.925 20.6587V21.1587H39.425V20.6587H38.925ZM34.9731 20.6587V20.1587H34.4731V20.6587H34.9731ZM34.9731 22.5812V23.0812H35.4731V22.5812H34.9731ZM31.3416 22.5812V22.0812H30.8416V22.5812H31.3416ZM31.3416 24.5038V25.0038H31.8416V24.5038H31.3416ZM27.7636 24.5038V24.0038H27.2636V24.5038H27.7636ZM27.7636 26.3462V26.8462H28.2636V26.3462H27.7636ZM24.2389 26.3462V25.8462H23.7389V26.3462H24.2389ZM24.2389 28.2421V28.7421H24.7389V28.2421H24.2389ZM22.53 28.2421V27.7421H22.03V28.2421H22.53ZM22.53 30.1646V30.6646H23.03V30.1646H22.53ZM19.1388 30.1646H18.6388V30.6646H19.1388V30.1646ZM19.1388 26.9871V26.4871H18.6388V26.9871H19.1388ZM21.4085 26.9871V27.4871H21.9085V26.9871H21.4085ZM21.4085 24.931V24.431H20.9085V24.931H21.4085ZM26.3751 24.931V25.431H26.8751V24.931H26.3751ZM26.3751 22.9017H26.8751V22.4017H26.3751V22.9017ZM3.22437 22.9017H2.72437V23.4017H3.22437V22.9017ZM3.22437 19.4304V18.9304H2.72437V19.4304H3.22437ZM17.2697 19.4304V19.9304H17.7697V19.4304H17.2697ZM17.2697 17.4544H17.7697V16.9544H17.2697V17.4544ZM12.0628 17.4544H11.5628V17.9544H12.0628V17.4544ZM12.0628 14.2769V13.7769H11.5628V14.2769H12.0628ZM17.7503 14.2769V14.7769H18.2503V14.2769H17.7503ZM17.7503 12.1407H18.2503V11.6407H17.7503V12.1407ZM14.1189 12.1407H13.6189V12.6407H14.1189V12.1407ZM14.1189 8.42915V7.92915H13.6189V8.42915H14.1189ZM19.1923 8.42915V8.92915H19.6923V8.42915H19.1923ZM19.1923 6.58732H19.6923V6.08732H19.1923V6.58732ZM11.314 8.57503V14.0418H12.314V8.57503H11.314ZM13.7178 8.07503H11.814V9.07503H13.7178V8.07503ZM13.2178 4.95811V8.57503H14.2178V4.95811H13.2178ZM15.5401 4.45811H13.7178V5.45811H15.5401V4.45811ZM15.0401 3.08176V4.95811H16.0401V3.08176H15.0401ZM17.3079 2.58176H15.5401V3.58176H17.3079V2.58176ZM16.8079 1.15039V3.08176H17.8079V1.15039H16.8079ZM29.9274 0.650391H17.3079V1.65039H29.9274V0.650391ZM30.4274 3.08176V1.15039H29.4274V3.08176H30.4274ZM35.3668 2.58176H29.9274V3.58176H35.3668V2.58176ZM35.8668 5.06706V3.08176H34.8668V5.06706H35.8668ZM41.1598 4.56706H35.3668V5.56706H41.1598V4.56706ZM41.6598 22.582V5.06706H40.6598V22.582H41.6598ZM35.2036 23.082H41.1598V22.082H35.2036V23.082ZM35.7036 24.7034V22.582H34.7036V24.7034H35.7036ZM31.6952 25.2034H35.2036V24.2034H31.6952V25.2034ZM32.1952 26.5528V24.7034H31.1952V26.5528H32.1952ZM28.1052 27.0528H31.6952V26.0528H28.1052V27.0528ZM28.6052 28.4294V26.5528H27.6052V28.4294H28.6052ZM24.5695 28.9294H28.1052V27.9294H24.5695V28.9294ZM25.0695 30.306V28.4294H24.0695V30.306H25.0695ZM22.8833 30.806H24.5695V29.806H22.8833V30.806ZM23.3833 32.237V30.306H22.3833V32.237H23.3833ZM17.2535 32.737H22.8833V31.737H17.2535V32.737ZM16.7535 26.7704V32.237H17.7535V26.7704H16.7535ZM19.1573 26.2704H17.2535V27.2704H19.1573V26.2704ZM18.6573 24.9482V26.7704H19.6573V24.9482H18.6573ZM2.94776 25.4482H19.1573V24.4482H2.94776V25.4482ZM2.44776 23.0444V24.9482H3.44776V23.0444H2.44776ZM0.989502 23.5444H2.94776V22.5444H0.989502V23.5444ZM0.489502 19.6447V23.0444H1.4895V19.6447H0.489502ZM2.83891 19.1447H0.989502V20.1447H2.83891V19.1447ZM2.33891 17.5506V19.6447H3.33891V17.5506H2.33891ZM10.1006 17.0506H2.83891V18.0506H10.1006V17.0506ZM9.60056 14.0418V17.5506H10.6006V14.0418H9.60056ZM11.814 13.5418H10.1006V14.5418H11.814V13.5418ZM15.0607 5.01213V6.58732H16.0607V5.01213H15.0607ZM17.2696 4.51213H15.5607V5.51213H17.2696V4.51213ZM16.7696 3.22266V5.01213H17.7696V3.22266H16.7696ZM29.8463 2.72266H17.2696V3.72266H29.8463V2.72266ZM30.3463 5.01213V3.22266H29.3463V5.01213H30.3463ZM35.1333 4.51213H29.8463V5.51213H35.1333V4.51213ZM35.6333 6.72022V5.01213H34.6333V6.72022H35.6333ZM38.925 6.22022H35.1333V7.22022H38.925V6.22022ZM39.425 20.6587V6.72022H38.425V20.6587H39.425ZM34.9731 21.1587H38.925V20.1587H34.9731V21.1587ZM35.4731 22.5812V20.6587H34.4731V22.5812H35.4731ZM31.3416 23.0812H34.9731V22.0812H31.3416V23.0812ZM31.8416 24.5038V22.5812H30.8416V24.5038H31.8416ZM27.7636 25.0038H31.3416V24.0038H27.7636V25.0038ZM28.2636 26.3462V24.5038H27.2636V26.3462H28.2636ZM24.2389 26.8462H27.7636V25.8462H24.2389V26.8462ZM24.7389 28.2421V26.3462H23.7389V28.2421H24.7389ZM22.53 28.7421H24.2389V27.7421H22.53V28.7421ZM23.03 30.1646V28.2421H22.03V30.1646H23.03ZM19.1388 30.6646H22.53V29.6646H19.1388V30.6646ZM18.6388 26.9871V30.1646H19.6388V26.9871H18.6388ZM21.4085 26.4871H19.1388V27.4871H21.4085V26.4871ZM20.9085 24.931V26.9871H21.9085V24.931H20.9085ZM26.3751 24.431H21.4085V25.431H26.3751V24.431ZM25.8751 22.9017V24.931H26.8751V22.9017H25.8751ZM3.22437 23.4017H26.3751V22.4017H3.22437V23.4017ZM2.72437 19.4304V22.9017H3.72437V19.4304H2.72437ZM17.2697 18.9304H3.22437V19.9304H17.2697V18.9304ZM16.7697 17.4544V19.4304H17.7697V17.4544H16.7697ZM12.0628 17.9544H17.2697V16.9544H12.0628V17.9544ZM11.5628 14.2769V17.4544H12.5628V14.2769H11.5628ZM17.7503 13.7769H12.0628V14.7769H17.7503V13.7769ZM17.2503 12.1407V14.2769H18.2503V12.1407H17.2503ZM14.1189 12.6407H17.7503V11.6407H14.1189V12.6407ZM13.6189 8.42915V12.1407H14.6189V8.42915H13.6189ZM19.1923 7.92915H14.1189V8.92915H19.1923V7.92915ZM18.6923 6.58732V8.42915H19.6923V6.58732H18.6923ZM15.5607 7.08732H19.1923V6.08732H15.5607V7.08732Z" fill="black"/>
</svg>
