<svg width="96" height="57" viewBox="0 0 96 57" fill="none" xmlns="http://www.w3.org/2000/svg">
<path d="M0.80957 0.68457H11.5396L23.4201 24.8277L36.0665 0.68457H46.4136L28.7852 34.7916V54.336H67.1382L62.6575 51.7774L58.1768 48.351L56.2001 45.0564L54.8484 41.6201V0.68457H64.604V35.6338V38.75L65.1936 40.9398L66.5411 43.7191L68.2255 45.0564L70.3311 46.4984L72.8577 47.0879H75.3002H78.0764L80.3535 46.4984L82.9524 45.0564L84.0592 43.7191L85.491 40.9398L86.3788 38.0717V0.68457H95.0767V38.0717V41.6201L93.2317 45.9789L90.7277 49.8006L87.3013 52.5681L82.9524 54.336L78.0764 55.5992H73.3321L67.1382 54.336H28.7852H19.2046V34.7916L0.80957 0.68457Z" fill="black"/>
<path d="M28.7852 54.336V34.7916L46.4136 0.68457H36.0665L23.4201 24.8277L11.5396 0.68457H0.80957L19.2046 34.7916V54.336H28.7852ZM28.7852 54.336H67.1382M67.1382 54.336L62.6575 51.7774L58.1768 48.351L56.2001 45.0564L54.8484 41.6201V0.68457H64.604V35.6338V38.75L65.1936 40.9398L66.5411 43.7191L68.2255 45.0564L70.3311 46.4984L72.8577 47.0879H75.3002H78.0764L80.3535 46.4984L82.9524 45.0564L84.0592 43.7191L85.491 40.9398L86.3788 38.0717V0.68457H95.0767V38.0717V41.6201L93.2317 45.9789L90.7277 49.8006L87.3013 52.5681L82.9524 54.336L78.0764 55.5992H73.3321L67.1382 54.336Z" stroke="black" stroke-linecap="round" stroke-linejoin="round"/>
</svg>
