<svg width="80" height="40" viewBox="0 0 80 40" fill="none" xmlns="http://www.w3.org/2000/svg">
<path d="M1.0625 1.36523H8.40918L16.5435 17.8956L25.2023 1.36523H32.2867L20.2169 24.7177V38.0994H59.7536L56.6857 36.3476L53.6179 34.0016L52.2644 31.7458L51.339 29.393V1.36523H58.0185V25.2943V27.4279L58.4221 28.9272L59.3447 30.8302L60.4981 31.7458L61.9397 32.7331L63.6696 33.1368H65.3419H67.2427L68.8018 32.7331L70.5813 31.7458L71.3391 30.8302L72.3194 28.9272L72.9273 26.9636V1.36523H78.8825V26.9636V29.393L77.6193 32.3774L75.9049 34.9941L73.5589 36.889L70.5813 38.0994L67.2427 38.9643H63.9944L59.7536 38.0994H20.2169H13.6572V24.7177L1.0625 1.36523Z" fill="black"/>
<path d="M20.2169 38.0994V24.7177L32.2867 1.36523H25.2023L16.5435 17.8956L8.40918 1.36523H1.0625L13.6572 24.7177V38.0994H20.2169ZM20.2169 38.0994H59.7536M59.7536 38.0994L56.6857 36.3476L53.6179 34.0016L52.2644 31.7458L51.339 29.393V1.36523H58.0185V25.2943V27.4279L58.4221 28.9272L59.3447 30.8302L60.4981 31.7458L61.9397 32.7331L63.6696 33.1368H65.3419H67.2427L68.8018 32.7331L70.5813 31.7458L71.3391 30.8302L72.3194 28.9272L72.9273 26.9636V1.36523H78.8825V26.9636V29.393L77.6193 32.3774L75.9049 34.9941L73.5589 36.889L70.5813 38.0994L67.2427 38.9643H63.9944L59.7536 38.0994Z" stroke="black" stroke-linecap="round" stroke-linejoin="round"/>
</svg>
